<svg width="158" height="144" viewBox="0 0 158 144" fill="none" xmlns="http://www.w3.org/2000/svg">
<path d="M157.09 55.8342C156.253 54.6797 154.931 54.0175 153.459 54.0175H109.768C107.11 54.0175 104.574 56.1016 103.866 58.8692L96.3966 87.0707C95.4277 87.4017 94.5232 87.563 93.6588 87.563C93.2407 87.563 92.8347 87.5248 92.4327 87.4484C92.0146 87.3678 91.7814 86.8966 91.9623 86.4976C93.687 82.6265 94.5594 78.4837 94.5594 74.1669C94.5594 68.5088 93.0116 63.0119 90.0808 58.2749C87.2345 53.6694 83.2264 49.9893 78.4906 47.6335C76.8463 46.8143 75.1377 46.1649 73.3769 45.6937C73.9276 44.6793 74.0925 43.8558 73.9719 43.0281C73.8432 42.1155 73.3326 41.326 72.5849 40.8591C71.9778 40.4855 71.2783 40.2945 70.5024 40.2945C69.4893 40.2945 68.2712 40.6553 66.844 41.3769C66.3978 40.3242 65.5013 39.6154 64.3756 39.4244C64.2188 39.3989 64.05 39.3819 63.8811 39.3819C62.7313 39.3819 61.2358 39.7937 55.6839 44.7557C52.8416 47.2982 49.8586 50.2058 48.3068 51.7466C44.0173 55.5711 40.9016 60.6052 39.3016 66.31C38.9518 67.5622 38.6342 68.8483 38.3608 70.1302C38.3488 70.1727 38.3407 70.2194 38.3327 70.2618C37.4241 74.5574 36.9618 78.9846 36.9618 83.4245C36.9618 91.6039 38.4895 99.5372 41.5046 107.012C44.4153 114.228 48.5802 120.705 53.8909 126.266C59.1976 131.826 65.3726 136.19 72.2512 139.242C79.371 142.4 86.937 144 94.7322 144C102.527 144 110.089 142.4 117.213 139.242C124.092 136.194 130.267 131.826 135.574 126.266C140.88 120.705 145.045 114.228 147.956 107.012C150.911 99.69 152.434 91.9223 152.495 83.9169L157.829 60.1256C158.211 58.572 157.946 57.0142 157.094 55.8427L157.09 55.8342ZM155.57 59.5228L151.731 76.6415C151.719 76.6076 151.707 76.5694 151.695 76.5354C151.61 76.3062 151.518 76.0812 151.421 75.8605C151.112 75.1389 150.738 74.4725 150.316 73.8655L150.304 73.2331C150.3 73.0675 150.195 69.1582 148.31 65.0112C147.739 63.759 147.208 62.7403 146.722 61.9168C146.641 61.781 146.561 61.6452 146.48 61.5178C146.243 61.1358 146.014 60.8005 145.797 60.5033C145.652 60.3081 145.511 60.1256 145.379 59.9643C145.242 59.7987 145.113 59.6544 144.985 59.5228C144.796 59.3233 144.619 59.1578 144.45 59.022C144.225 58.8394 144.016 58.7036 143.831 58.606C143.312 58.3343 142.935 58.3343 142.693 58.3343C142.488 58.3343 142.283 58.3598 142.086 58.415C142.03 58.4277 141.974 58.4489 141.917 58.4659C141.745 58.5253 141.572 58.6145 141.407 58.7248H141.266L141.121 58.7461C139.988 58.8946 139.284 59.7435 138.754 60.8047C138.577 61.157 138.42 61.5348 138.271 61.9168C138.138 62.2564 138.01 62.6299 137.881 63.0204C137.503 64.2047 137.153 65.5969 136.856 67.125C136.522 68.8483 136.414 70.4486 136.406 71.7899V72.1464C136.414 72.6176 136.43 73.0506 136.454 73.4411C136.366 73.5642 136.277 73.6872 136.189 73.8188C136.104 73.9504 136.016 74.082 135.931 74.2221C135.143 75.5124 134.572 76.9302 134.114 78.2757C133.841 79.0865 133.608 79.8675 133.395 80.5891C133.318 80.8395 133.25 81.0857 133.177 81.3191C133.129 81.4719 133.085 81.6248 133.041 81.7606C132.976 81.9728 132.912 82.1596 132.852 82.3166C132.751 82.584 132.647 82.843 132.538 83.0892C132.325 83.5815 132.096 84.0315 131.851 84.4432C131.726 84.647 131.602 84.8422 131.473 85.0247C131.352 84.9186 131.244 84.8422 131.151 84.7828C131.079 84.7318 130.93 84.6427 130.725 84.5578C130.657 84.5323 130.58 84.5026 130.5 84.4772C130.275 84.0824 129.989 83.832 129.837 83.7174C129.817 83.7004 129.796 83.6834 129.78 83.6749C129.149 83.2335 127.477 82.0577 121.921 86.8669C121.712 87.0452 121.511 87.2277 121.318 87.4102C119.967 88.6879 118.978 90.0122 118.303 91.0649C117.491 91.0988 116.683 91.2177 115.923 91.4087C115.159 91.5955 114.435 91.8501 113.784 92.1388C113.651 92.194 113.523 92.2534 113.402 92.317C112.775 92.6184 112.228 92.9537 111.79 93.2933C111.605 93.4334 111.291 93.6456 110.865 93.9173C110.781 93.9725 110.692 94.0234 110.596 94.0828C110.407 94.1974 110.202 94.3248 109.981 94.4564C109.872 94.5243 109.756 94.5922 109.639 94.6601C109.048 95.0082 108.361 95.3987 107.593 95.8189C107.44 95.9038 107.279 95.9887 107.123 96.0736C104.409 97.538 100.827 99.2868 97.068 100.704C94.6116 101.634 92.0789 102.415 89.6668 102.89C89.5502 102.916 89.4336 102.941 89.317 102.963C80.364 104.614 73.9638 100.581 73.9075 100.547L69.8712 97.8988C72.2753 101.944 76.2071 104.707 80.6735 105.463C83.2344 105.896 86.3059 106.015 89.723 105.382C94.1613 104.559 98.9454 102.729 103.042 100.836C103.074 100.823 103.098 100.811 103.126 100.798C103.263 100.734 103.4 100.671 103.532 100.607C103.685 100.535 103.838 100.463 103.991 100.39C104.28 100.255 104.566 100.114 104.847 99.9787C104.988 99.9107 105.133 99.8428 105.269 99.7707C105.454 99.6773 105.643 99.5881 105.824 99.4948C105.892 99.4608 105.961 99.4268 106.025 99.3929C106.302 99.2528 106.58 99.1127 106.845 98.9727C106.998 98.892 107.147 98.8156 107.295 98.7392C107.344 98.7137 107.392 98.6883 107.44 98.6586C107.565 98.5906 107.689 98.527 107.81 98.4633C107.923 98.4039 108.035 98.3445 108.148 98.2808C108.345 98.1747 108.534 98.0728 108.719 97.9709C108.819 97.9157 108.92 97.8563 109.02 97.8054C109.141 97.7375 109.253 97.6738 109.37 97.6101C109.37 97.6101 109.374 97.6101 109.378 97.6059C109.486 97.5465 109.591 97.487 109.691 97.4276C110.154 97.1644 110.58 96.9183 110.962 96.6933C111.09 96.6169 111.215 96.5447 111.336 96.4683C111.416 96.4216 111.492 96.3707 111.569 96.324C111.621 96.29 111.669 96.2603 111.722 96.2306C111.782 96.1924 111.842 96.1585 111.899 96.1203C111.963 96.0821 112.027 96.0396 112.087 96.0014C112.128 95.9759 112.164 95.9547 112.2 95.9293C112.236 95.9038 112.276 95.8783 112.309 95.8571C112.397 95.7977 112.481 95.7425 112.562 95.6916C112.606 95.6618 112.646 95.6364 112.686 95.6067C112.771 95.5472 112.855 95.4921 112.924 95.4454C112.924 95.4454 112.932 95.4411 112.936 95.4369C112.976 95.4072 113.012 95.3817 113.044 95.3562C113.084 95.3308 113.121 95.301 113.153 95.2756C113.185 95.2501 113.221 95.2246 113.257 95.1992C113.294 95.1737 113.326 95.1482 113.366 95.1228C113.374 95.1143 113.386 95.11 113.398 95.1015C113.402 95.0973 113.41 95.0931 113.418 95.0888C113.482 95.0464 113.547 95.0039 113.619 94.9615C113.631 94.953 113.647 94.9445 113.659 94.936C113.832 94.8299 114.029 94.7238 114.242 94.6177C114.254 94.6092 114.274 94.6049 114.287 94.5964C114.387 94.5455 114.488 94.4988 114.592 94.4521C114.6 94.4479 114.608 94.4436 114.616 94.4394C114.853 94.3333 115.107 94.2314 115.376 94.1338C115.38 94.1338 115.388 94.1338 115.392 94.1295C115.995 93.913 116.666 93.7305 117.37 93.6202C117.39 93.6202 117.41 93.6159 117.426 93.6117C117.579 93.5862 117.732 93.5692 117.889 93.5522C117.909 93.5522 117.929 93.548 117.953 93.548C118.492 93.4971 119.042 93.4928 119.589 93.5565C119.593 93.548 119.601 93.5353 119.605 93.5225C119.633 93.4716 119.658 93.4207 119.69 93.3655C119.69 93.3655 119.69 93.3641 119.69 93.3612C119.758 93.2339 119.842 93.0896 119.931 92.9325C120.116 92.6227 120.349 92.2576 120.622 91.8629C120.622 91.8586 120.63 91.8544 120.63 91.8501C120.92 91.4342 121.262 90.9842 121.66 90.5173C121.668 90.5088 121.676 90.4961 121.684 90.4876C122.009 90.1056 122.371 89.7193 122.769 89.3373C122.85 89.2609 122.93 89.1845 123.01 89.1081C123.022 89.0996 123.03 89.0911 123.043 89.0826C123.159 88.9765 123.276 88.8704 123.396 88.7643C126.223 86.3151 128.148 85.4747 128.49 85.7166C128.582 85.7803 128.184 86.5868 127.557 87.7243C127.537 87.7583 127.521 87.7922 127.501 87.8262C127.457 87.9069 127.408 87.9875 127.364 88.0681C127.344 88.1106 127.316 88.153 127.296 88.1955C127.268 88.2464 127.24 88.2974 127.211 88.3483C127.171 88.4247 127.127 88.5011 127.083 88.5775C127.055 88.6284 127.027 88.6751 126.998 88.7218C126.962 88.7897 126.922 88.8534 126.886 88.9171C126.874 88.9383 126.862 88.9595 126.85 88.985C126.592 89.4349 126.319 89.9061 126.038 90.3857C125.318 91.6167 124.554 92.8943 123.923 93.9428C123.81 94.1338 123.698 94.3163 123.593 94.4903C123.489 94.6643 123.388 94.8299 123.292 94.9869C123.244 95.0633 123.199 95.1397 123.155 95.2119C123.159 95.2119 123.163 95.2204 123.167 95.2246C123.372 95.4284 123.561 95.6406 123.738 95.8571C124.55 94.571 126.009 92.2916 127.3 90.3475C128.148 89.0699 128.924 87.9366 129.407 87.3253C129.415 87.3168 129.423 87.3041 129.431 87.2914C129.467 87.2489 129.499 87.2065 129.531 87.164C129.551 87.1428 129.567 87.1216 129.583 87.1046C129.595 87.0876 129.612 87.0706 129.624 87.0537C129.652 87.0197 129.676 86.9942 129.7 86.9688C129.708 86.9603 129.712 86.956 129.72 86.9476C129.74 86.9263 129.76 86.9094 129.776 86.8924C129.78 86.8881 129.784 86.8839 129.788 86.8796C129.809 86.8627 129.825 86.8542 129.841 86.8457C129.841 86.8457 129.845 86.8457 129.849 86.8457C129.861 86.8372 129.873 86.8372 129.885 86.8457C130.215 87.0707 130.263 89.0869 129.398 92.5038C129.378 92.5845 129.358 92.6651 129.334 92.7458C129.314 92.8307 129.294 92.9071 129.27 92.9919C129.258 93.0471 129.238 93.1066 129.222 93.1617C129.21 93.2212 129.189 93.2763 129.173 93.3315C129.165 93.3527 129.157 93.3782 129.149 93.3994C129.125 93.4886 129.097 93.5777 129.065 93.6626C129.053 93.6966 129.045 93.7263 129.033 93.7602C129.005 93.8409 128.976 93.9215 128.948 93.9979C128.936 94.0319 128.924 94.0658 128.908 94.0998C128.88 94.1762 128.852 94.2526 128.824 94.329L128.783 94.4309C128.751 94.5073 128.723 94.5794 128.691 94.6559C128.679 94.6898 128.663 94.7238 128.651 94.7577C128.619 94.8341 128.586 94.9063 128.554 94.9827C128.538 95.0167 128.522 95.0464 128.51 95.0803C128.474 95.1525 128.442 95.2289 128.405 95.301C128.393 95.335 128.377 95.3647 128.361 95.3944C128.325 95.4708 128.289 95.543 128.253 95.6194C128.237 95.6491 128.221 95.6788 128.204 95.7085C128.168 95.7807 128.128 95.8571 128.092 95.9293C128.076 95.9547 128.06 95.9844 128.048 96.0141C128.007 96.0905 127.967 96.1669 127.927 96.2391C127.915 96.2646 127.903 96.2858 127.891 96.307C127.843 96.3919 127.798 96.4726 127.754 96.549C127.746 96.566 127.738 96.5829 127.73 96.5957C127.678 96.6933 127.622 96.7824 127.569 96.8716C127.569 96.8716 127.569 96.8758 127.565 96.8801C127.457 97.0626 127.348 97.2451 127.236 97.4191C127.211 97.4573 127.191 97.4913 127.167 97.5252C127.135 97.5719 127.107 97.6229 127.075 97.6696C127.043 97.712 127.014 97.7587 126.986 97.8054C126.962 97.8393 126.938 97.8733 126.918 97.9073C126.882 97.9582 126.85 98.0091 126.813 98.0601C126.797 98.0813 126.781 98.1068 126.765 98.1322C126.725 98.1874 126.685 98.2468 126.645 98.302C126.637 98.3147 126.625 98.3275 126.617 98.3445C126.572 98.4081 126.528 98.4718 126.488 98.527C126.488 98.5312 126.484 98.5355 126.48 98.5397C125.909 99.342 125.447 99.8938 125.306 100.059C125.338 100.39 125.35 100.721 125.35 101.048C125.35 103.005 124.852 104.83 124.353 105.917C123.336 108.128 116.08 119.831 105.165 125.994C93.3613 132.667 83.8133 134.101 79.1539 134.687C77.4413 134.899 75.9659 134.815 73.8472 135.137L73.8352 135.15L75.4995 135.413C75.6764 135.439 77.1197 135.655 79.5197 135.655C84.8345 135.655 94.8488 134.602 106.262 128.155C117.909 121.575 125.443 109.156 126.444 106.982C127.087 105.586 127.698 103.34 127.674 100.908C128.743 99.5245 130.677 96.7272 131.505 93.6499C132.184 91.1285 132.426 89.3373 132.426 88.0597C132.426 88.0172 132.426 87.979 132.426 87.9366C133.515 86.8329 134.46 85.3176 135.22 83.3014C136.341 80.3174 137.491 72.6006 142.87 72.6006C143.489 72.6006 144.165 72.7025 144.9 72.9232C145.025 72.9614 145.15 73.0039 145.27 73.0506C145.616 73.1821 145.942 73.3434 146.255 73.5344C146.307 73.5684 146.356 73.5981 146.408 73.6321C146.569 73.7382 146.726 73.8485 146.878 73.9716C146.931 74.0141 146.983 74.0565 147.035 74.099C147.212 74.2475 147.381 74.4046 147.546 74.5744C147.558 74.5871 147.57 74.6041 147.582 74.6168C147.763 74.8121 147.936 75.0158 148.096 75.2323C148.101 75.2408 148.105 75.245 148.109 75.2535C148.591 75.903 148.997 76.6543 149.303 77.4947C149.419 77.8131 149.512 78.1399 149.592 78.4667C149.6 78.5049 149.612 78.5474 149.62 78.5856C149.62 78.5941 149.624 78.6068 149.628 78.611C149.709 78.9761 149.765 79.3411 149.809 79.7104C149.809 79.7231 149.809 79.7401 149.813 79.7529C149.833 79.9311 149.845 80.1094 149.857 80.2919C149.857 80.3514 149.865 80.4108 149.869 80.4702C149.881 80.7886 149.894 81.1112 149.906 81.4337C149.918 81.9092 149.93 82.3846 149.938 82.8642V82.8727C149.938 83.051 149.938 83.2292 149.938 83.4118C149.938 84.405 149.914 85.394 149.865 86.3788C148.394 116.962 124.273 141.283 94.7282 141.283C65.1837 141.283 39.5187 115.374 39.5187 83.4118C39.5187 79.0652 39.977 74.8333 40.8453 70.7627C40.8453 70.7584 40.8453 70.7542 40.8453 70.7457C41.1107 69.502 41.4122 68.2796 41.7539 67.0656C43.2414 61.7598 46.1641 57.1628 50.0074 53.7586C52.9864 50.8085 61.9514 42.0773 63.8811 42.0773C63.9133 42.0773 63.9414 42.0773 63.9696 42.0858C65.5455 42.3532 63.6761 45.5537 62.6911 47.0648C62.6268 47.1666 62.7032 47.2812 62.7997 47.2812C62.8238 47.2812 62.852 47.2727 62.8761 47.2515C64.4721 45.9569 68.3757 42.9941 70.4984 42.9941C70.8039 42.9941 71.0693 43.0536 71.2904 43.1894C71.3708 43.2403 71.415 43.3082 71.4351 43.4016C71.4472 43.4483 71.4472 43.4992 71.4431 43.5544C71.4351 43.7115 71.3668 43.9067 71.2622 44.1275C71.2582 44.1402 71.2542 44.1487 71.2502 44.1614C71.2462 44.1699 71.2421 44.1826 71.2381 44.1869C71.1617 44.3354 71.0773 44.4967 70.9688 44.6665C70.9004 44.7726 70.8281 44.8872 70.7517 45.0019C70.5868 45.2438 70.4019 45.4985 70.2009 45.7574C70.1486 45.8253 70.1004 45.889 70.0481 45.9527C69.7506 46.3304 69.429 46.7167 69.0994 47.0987C68.9265 47.2982 69.0431 47.6166 69.3004 47.6463C69.6582 47.6887 70.016 47.7397 70.3697 47.7991C70.4904 47.8203 70.611 47.8458 70.7316 47.867C70.9607 47.9094 71.1939 47.9476 71.423 47.9943C71.5798 48.0283 71.7366 48.0665 71.8894 48.1005C72.0824 48.1429 72.2713 48.1853 72.4643 48.2363C72.5326 48.2533 72.601 48.2745 72.6693 48.2915C72.9829 48.3764 73.2884 48.4612 73.598 48.5546C74.0764 48.7032 74.5427 48.8645 75.0091 49.0385C75.4955 49.221 75.9779 49.4121 76.4523 49.6243C76.7699 49.7686 77.0875 49.9172 77.4011 50.0742C86.0365 54.3741 91.9985 63.5468 91.9985 74.1669C91.9985 78.5092 91.0015 82.6053 89.2326 86.2302C88.5733 87.58 89.2044 89.2312 90.5713 89.7236C91.5965 90.0928 92.6216 90.2669 93.6548 90.2669C94.298 90.2669 94.9413 90.1947 95.5885 90.0674C96.4649 89.8976 97.3454 89.609 98.2338 89.2312L98.266 89.1251L99.1102 85.9373L102.821 71.9172L106.105 59.5186C106.262 58.8861 106.596 58.3046 107.03 57.8165C107.114 57.7231 107.203 57.634 107.291 57.5491C107.436 57.4132 107.589 57.2859 107.754 57.167C107.927 57.0397 108.111 56.9336 108.296 56.836C108.767 56.6025 109.269 56.4709 109.768 56.4709H153.459C154.553 56.4709 155.345 57.1161 155.59 58.0627C155.634 58.2324 155.663 58.4192 155.671 58.606C155.671 58.6442 155.671 58.6824 155.671 58.7206C155.671 58.9753 155.638 59.2427 155.57 59.5143V59.5228ZM143.538 69.4383C143.517 69.2898 143.497 69.1455 143.477 68.9927C143.429 68.6701 143.389 68.339 143.345 68.0037C143.256 67.3372 143.168 66.6708 143.087 66.0214C143.051 65.737 143.015 65.4611 142.983 65.1852C142.963 65.0069 142.943 64.8329 142.918 64.6631C142.898 64.4933 142.878 64.3235 142.862 64.158C142.814 63.759 142.774 63.3812 142.738 63.0289C142.729 62.9525 142.721 62.8761 142.713 62.8039C142.701 62.6893 142.693 62.579 142.681 62.4771C142.669 62.371 142.661 62.2691 142.653 62.1715C142.645 62.0739 142.637 61.9762 142.629 61.8871C142.625 61.798 142.617 61.7131 142.613 61.6324C142.609 61.5475 142.605 61.4711 142.601 61.399C142.601 61.3565 142.597 61.3141 142.597 61.2716C142.597 61.174 142.597 61.0891 142.597 61.0169C142.597 61 142.597 60.983 142.597 60.966C142.597 60.9533 142.597 60.9405 142.597 60.9236C142.601 60.8896 142.605 60.8599 142.609 60.8387C142.609 60.8217 142.617 60.8047 142.625 60.7962C142.625 60.7962 142.625 60.792 142.629 60.7877C142.633 60.7792 142.637 60.7792 142.641 60.7792C142.653 60.775 142.665 60.775 142.681 60.775C142.689 60.775 142.701 60.775 142.705 60.7792C142.721 60.7792 142.738 60.7835 142.754 60.7877C142.774 60.792 142.79 60.8005 142.81 60.809C142.818 60.809 142.822 60.8132 142.83 60.8174C142.842 60.8217 142.854 60.8302 142.87 60.8387C142.874 60.8387 142.878 60.8472 142.886 60.8472C142.902 60.8557 142.922 60.8684 142.939 60.8811C142.963 60.8938 142.983 60.9151 143.007 60.9321C143.031 60.9533 143.059 60.9745 143.087 61C143.111 61.0212 143.136 61.0424 143.164 61.0679C143.196 61.0933 143.224 61.1273 143.256 61.157C143.284 61.1867 143.312 61.2122 143.341 61.2462C143.373 61.2801 143.405 61.3183 143.441 61.3565C143.473 61.3905 143.501 61.4244 143.534 61.4626C143.57 61.5051 143.606 61.5518 143.642 61.5942C143.654 61.6154 143.674 61.6324 143.69 61.6536C143.71 61.6749 143.727 61.6961 143.747 61.7216C143.755 61.7343 143.767 61.747 143.779 61.764C143.803 61.798 143.827 61.8277 143.851 61.8616C143.855 61.8701 143.859 61.8744 143.863 61.8786C143.899 61.9295 143.932 61.9762 143.972 62.0272C143.996 62.0611 144.02 62.0951 144.048 62.1333C144.064 62.1588 144.084 62.1842 144.1 62.2097C144.137 62.2649 144.177 62.3158 144.213 62.3752C144.257 62.4431 144.305 62.5111 144.35 62.5832C144.39 62.6427 144.43 62.7021 144.47 62.7657C144.494 62.8039 144.518 62.8421 144.539 62.8803C144.563 62.9186 144.587 62.961 144.611 62.9992C144.643 63.0544 144.675 63.1011 144.707 63.1605C144.715 63.1732 144.72 63.186 144.732 63.1987C144.78 63.2836 144.832 63.377 144.884 63.4619C144.917 63.517 144.945 63.568 144.977 63.6232C144.989 63.6401 144.997 63.6614 145.009 63.6783C145.061 63.776 145.118 63.8736 145.17 63.9755C145.21 64.0519 145.254 64.124 145.294 64.2047C145.323 64.2599 145.351 64.315 145.383 64.3745C145.411 64.4297 145.439 64.4891 145.471 64.5443C145.491 64.5825 145.511 64.6207 145.528 64.6589C145.548 64.6971 145.568 64.7395 145.588 64.7777C145.652 64.9093 145.721 65.0451 145.789 65.181C145.825 65.2531 145.857 65.321 145.893 65.3932C145.994 65.6054 146.098 65.8261 146.203 66.0554C147.116 68.0546 147.558 69.9944 147.771 71.3527C147.602 71.2466 147.433 71.1362 147.256 71.0386C147.083 70.941 146.906 70.8476 146.726 70.7627C146.545 70.6778 146.36 70.5971 146.175 70.525C146.082 70.4868 145.99 70.4528 145.893 70.4231C145.797 70.3892 145.704 70.3637 145.608 70.334C145.524 70.3085 145.439 70.283 145.351 70.2576C145.182 70.2109 145.013 70.1684 144.844 70.1302C144.748 70.109 144.655 70.0878 144.559 70.0708C144.237 70.0071 143.915 69.9647 143.602 69.935C143.578 69.7652 143.554 69.5954 143.53 69.4214L143.538 69.4383ZM138.741 71.1744C138.745 71.0089 138.754 70.8391 138.762 70.665C138.762 70.5802 138.77 70.4953 138.774 70.4061C138.782 70.317 138.786 70.2279 138.794 70.1387C138.806 69.9604 138.826 69.7779 138.842 69.5912C138.85 69.502 138.862 69.4086 138.874 69.311C138.91 68.9927 138.955 68.6616 139.007 68.3305C139.027 68.2116 139.047 68.0928 139.067 67.9739C139.087 67.8551 139.111 67.732 139.135 67.6131C139.212 67.2184 139.292 66.8406 139.369 66.4798C139.477 66.0002 139.586 65.5545 139.694 65.1385C139.714 65.0579 139.734 64.9772 139.759 64.9008C139.771 64.8414 139.791 64.7862 139.807 64.731C140.197 63.3303 140.587 62.3413 140.904 61.764C140.928 61.7173 140.953 61.6749 140.981 61.6324C141.069 61.4839 141.154 61.3692 141.226 61.2928C141.246 61.2716 141.262 61.2546 141.278 61.2419C141.29 61.2334 141.302 61.2207 141.314 61.2164C141.326 61.208 141.334 61.2037 141.347 61.1952C141.355 61.191 141.363 61.1867 141.371 61.1825C141.383 61.174 141.399 61.174 141.411 61.1698C141.411 61.1698 141.419 61.1698 141.423 61.174C141.423 61.174 141.431 61.1782 141.431 61.1825C141.435 61.1825 141.439 61.191 141.443 61.1995C141.455 61.2207 141.471 61.2546 141.483 61.2971C141.491 61.3226 141.499 61.3523 141.507 61.382C141.527 61.4457 141.544 61.5263 141.56 61.6112C141.568 61.6452 141.572 61.6791 141.58 61.7173C141.592 61.7725 141.6 61.8319 141.612 61.8913C141.628 61.9847 141.644 62.0824 141.66 62.1885C141.664 62.2267 141.668 62.2606 141.676 62.2988C141.708 62.5196 141.741 62.77 141.773 63.0416C141.785 63.1308 141.797 63.2242 141.805 63.3218C141.817 63.4194 141.829 63.517 141.841 63.6147C141.845 63.6656 141.853 63.7165 141.857 63.7675C141.869 63.8694 141.881 63.9755 141.893 64.0773C141.893 64.1028 141.897 64.1325 141.901 64.158C141.909 64.2386 141.921 64.3193 141.925 64.4042C141.938 64.5188 141.95 64.6334 141.962 64.7522C141.97 64.8584 141.982 64.9687 141.994 65.0833C141.994 65.113 141.998 65.1427 142.002 65.1725C142.01 65.2616 142.018 65.3507 142.026 65.4356C142.038 65.5545 142.05 65.6733 142.062 65.7922C142.074 65.9153 142.086 66.0341 142.098 66.1572C142.11 66.2803 142.122 66.4034 142.135 66.5265C142.147 66.6538 142.159 66.7769 142.171 66.9043C142.183 67.0316 142.195 67.1547 142.207 67.2821C142.211 67.3457 142.219 67.4094 142.223 67.4731C142.235 67.6004 142.247 67.7278 142.259 67.8508C142.319 68.547 142.38 69.2473 142.436 69.9137C142.287 69.9222 142.135 69.935 141.978 69.9562C141.897 69.9647 141.821 69.9774 141.741 69.9902C141.66 70.0029 141.58 70.0156 141.499 70.0326C141.391 70.0538 141.274 70.075 141.162 70.1048C141.117 70.1132 141.073 70.126 141.029 70.1387C140.949 70.1599 140.864 70.1812 140.78 70.2066C140.707 70.2278 140.635 70.2491 140.559 70.2745C140.506 70.2915 140.45 70.3127 140.398 70.3297C140.346 70.3467 140.289 70.3679 140.233 70.3891C140.177 70.4104 140.124 70.4316 140.068 70.4571C140.012 70.4825 139.952 70.508 139.895 70.5292C139.674 70.6269 139.453 70.7372 139.232 70.8645C139.152 70.907 139.071 70.9579 138.991 71.0089C138.91 71.0598 138.83 71.1107 138.749 71.1659L138.741 71.1744Z" fill="white"/>
<mask id="mask0_4_4" style="mask-type:luminance" maskUnits="userSpaceOnUse" x="70" y="44" width="2" height="1">
<path d="M71.2421 44.1911C71.1697 44.3397 71.0773 44.501 70.9727 44.675C71.0773 44.5052 71.1697 44.3439 71.2421 44.1911Z" fill="white"/>
</mask>
<g mask="url(#mask0_4_4)">
<path d="M71.2429 44.4464L70.9727 44.4549V44.1911H71.2429V44.4464Z" fill="#BBF902"/>
<path d="M70.9728 44.4543L71.2429 44.4458V44.6755H70.9728V44.4543Z" fill="#BAF802"/>
</g>
<mask id="mask1_4_4" style="mask-type:luminance" maskUnits="userSpaceOnUse" x="70" y="45" width="1" height="1">
<path d="M70.7517 45.0061C70.5868 45.248 70.4019 45.4985 70.2009 45.7574C70.4019 45.4985 70.5868 45.2438 70.7517 45.0061Z" fill="white"/>
</mask>
<g mask="url(#mask1_4_4)">
<path d="M70.7558 45.0061H70.205V45.7574H70.7558V45.0061Z" fill="#BAF802"/>
</g>
<mask id="mask2_4_4" style="mask-type:luminance" maskUnits="userSpaceOnUse" x="97" y="89" width="2" height="3">
<path d="M98.2378 89.2354L97.5062 91.935L98.2378 89.2354Z" fill="white"/>
</mask>
<g mask="url(#mask2_4_4)">
<path d="M98.2378 90.1905L97.5062 90.2117V89.2354H98.2378V90.1905Z" fill="#A1D60B"/>
<path d="M98.2378 91.519L97.5061 91.5403V90.2117L98.2378 90.1905V91.519Z" fill="#A0D50C"/>
<path d="M97.5061 91.5403L98.2378 91.519V91.935H97.5061V91.5403Z" fill="#9FD40C"/>
</g>
<path d="M110.966 96.6933C110.58 96.9225 110.154 97.1687 109.695 97.4276C110.158 97.1645 110.584 96.9183 110.966 96.6933Z" fill="white"/>
<mask id="mask3_4_4" style="mask-type:luminance" maskUnits="userSpaceOnUse" x="103" y="95" width="11" height="6">
<path d="M113.157 95.2841C112.272 95.959 108.445 98.302 103.536 100.607C108.296 98.3742 112.108 96.0863 113.157 95.2841Z" fill="white"/>
</mask>
<g mask="url(#mask3_4_4)">
<path d="M108.759 95.2077L103.532 95.3562V95.2077H108.759Z" fill="#9ED20D"/>
<path d="M113.261 96.4089L103.532 96.6848V95.3562L108.759 95.2077H113.261V96.4089Z" fill="#9DD10D"/>
<path d="M113.261 97.7375L103.533 98.0134V96.6848L113.261 96.4089V97.7375Z" fill="#9CCF0D"/>
<path d="M113.261 99.0661L103.533 99.342V98.0134L113.261 97.7375V99.0661Z" fill="#9BCE0D"/>
<path d="M113.261 100.395L105.768 100.607H103.533V99.342L113.261 99.0661V100.395Z" fill="#9BCD0E"/>
<path d="M105.768 100.607L113.261 100.395V100.607H105.768Z" fill="#9ACC0E"/>
</g>
<mask id="mask4_4_4" style="mask-type:luminance" maskUnits="userSpaceOnUse" x="113" y="95" width="1" height="1">
<path d="M113.406 95.1058C113.406 95.1058 113.398 95.11 113.394 95.1142C113.398 95.1142 113.406 95.1058 113.414 95.1015C113.414 95.1015 113.41 95.1015 113.406 95.1058Z" fill="white"/>
</mask>
<g mask="url(#mask4_4_4)">
<path d="M113.418 95.0975H113.398V95.1101H113.418V95.0975Z" fill="#91C011"/>
</g>
<path d="M155.671 58.6145C155.663 58.4235 155.634 58.2409 155.59 58.0712C155.341 57.1204 154.553 56.4794 153.459 56.4794H109.768C109.269 56.4794 108.767 56.611 108.296 56.8445C108.111 56.9421 107.927 57.0482 107.754 57.1755C107.593 57.2901 107.44 57.4175 107.291 57.5576C107.199 57.6425 107.11 57.7316 107.03 57.825C106.596 58.3131 106.266 58.8946 106.105 59.5271L102.821 71.9257L99.1102 85.9458L98.266 89.1336L98.2338 89.2397L97.5021 91.9393L96.7423 94.745H78.6072C78.4544 94.745 78.3056 94.779 78.173 94.8384C78.0403 94.8978 77.9197 94.9869 77.8192 95.0931C77.7669 95.1482 77.7227 95.2034 77.6825 95.2671C77.6503 95.3138 77.6262 95.3647 77.6021 95.4157C77.5539 95.5175 77.5217 95.6279 77.5056 95.7467C77.4976 95.8062 77.4936 95.8656 77.4936 95.925V96.2901C77.4936 96.8249 77.8353 97.2918 78.3257 97.4276L87.3511 99.9574C87.9702 100.131 88.5974 100.267 89.2286 100.361C89.3853 100.386 89.5462 100.407 89.707 100.429C90.0246 100.467 90.3421 100.497 90.6597 100.513C90.8206 100.522 90.9814 100.53 91.1382 100.535L97.076 100.704C100.835 99.2868 104.421 97.538 107.131 96.0736C107.287 95.9887 107.448 95.9038 107.601 95.8189C108.365 95.3987 109.056 95.0082 109.647 94.6601C109.768 94.5922 109.88 94.5243 109.989 94.4564C110.21 94.3248 110.415 94.1974 110.604 94.0828C110.696 94.0234 110.785 93.9682 110.873 93.9173C111.3 93.6456 111.609 93.4334 111.798 93.2933C112.24 92.9538 112.787 92.6184 113.41 92.3171C113.535 92.2576 113.659 92.1982 113.792 92.1388C114.447 91.8501 115.167 91.5955 115.931 91.4087C116.695 91.2177 117.499 91.0988 118.311 91.0649C118.986 90.008 119.975 88.6836 121.326 87.4102C121.519 87.2277 121.72 87.0452 121.929 86.8669C127.485 82.0577 129.157 83.2335 129.788 83.6749C129.801 83.6834 129.825 83.7004 129.845 83.7174C129.998 83.832 130.283 84.0824 130.508 84.4772C130.588 84.5026 130.661 84.5281 130.733 84.5578C130.938 84.6427 131.087 84.7319 131.159 84.7828C131.252 84.8422 131.36 84.9186 131.481 85.0247C131.61 84.8422 131.734 84.647 131.859 84.4432C132.1 84.0315 132.329 83.5858 132.546 83.0892C132.655 82.843 132.759 82.5841 132.86 82.3166C132.92 82.1553 132.985 81.9686 133.049 81.7606C133.093 81.6248 133.141 81.472 133.186 81.3191C133.258 81.0899 133.33 80.8395 133.403 80.5891C133.616 79.8675 133.845 79.0865 134.122 78.2757C134.581 76.9259 135.151 75.5125 135.939 74.2221C136.024 74.082 136.112 73.9462 136.197 73.8188C136.285 73.6873 136.374 73.5642 136.462 73.4411C136.438 73.0506 136.422 72.6176 136.414 72.1464V71.7899C136.418 70.4486 136.526 68.8483 136.864 67.125C137.162 65.5969 137.511 64.2047 137.889 63.0204C138.014 62.6257 138.146 62.2564 138.279 61.9168C138.424 61.5348 138.585 61.157 138.762 60.8047C139.292 59.7436 139.996 58.8989 141.129 58.7461L141.274 58.7248H141.415C141.584 58.6145 141.753 58.5296 141.925 58.4659C141.982 58.4447 142.038 58.4277 142.094 58.415C142.291 58.364 142.496 58.3343 142.701 58.3343C142.943 58.3343 143.32 58.3343 143.839 58.606C144.028 58.7036 144.233 58.8394 144.458 59.022C144.627 59.1578 144.804 59.3233 144.993 59.5228C145.122 59.6544 145.25 59.7987 145.387 59.9643C145.524 60.1256 145.66 60.3038 145.805 60.5033C146.022 60.8005 146.247 61.1358 146.488 61.5178C146.569 61.6452 146.645 61.7767 146.73 61.9168C147.216 62.7445 147.747 63.759 148.318 65.0112C150.207 69.1625 150.308 73.0718 150.312 73.2331L150.324 73.8655C150.75 74.4725 151.12 75.1389 151.429 75.8605C151.526 76.077 151.618 76.3062 151.703 76.5354C151.715 76.5736 151.727 76.6076 151.739 76.6415L155.578 59.5228C155.646 59.2512 155.679 58.9838 155.679 58.7291C155.679 58.6909 155.679 58.6527 155.679 58.6145H155.671ZM132.189 71.1872C132.176 71.4121 132.136 71.6498 132.076 71.8875C132.036 72.0403 131.992 72.1931 131.931 72.3417C131.875 72.4945 131.811 72.6388 131.742 72.7831C131.674 72.9275 131.594 73.0675 131.509 73.1991C131.401 73.3689 131.28 73.5387 131.147 73.7C131.095 73.7679 131.035 73.8358 130.974 73.8995C130.974 73.9037 130.966 73.9122 130.958 73.9207C130.894 73.9929 130.83 74.0565 130.761 74.1245C130.689 74.1966 130.617 74.2645 130.54 74.3324C130.452 74.4131 130.359 74.4852 130.267 74.5574C130.199 74.6126 130.126 74.6635 130.054 74.7102C129.981 74.7569 129.909 74.8078 129.833 74.8545C129.193 75.2408 128.482 75.4658 127.782 75.4658C127.195 75.4658 126.689 75.3087 126.279 75.0328C126.206 74.9819 126.138 74.9309 126.074 74.88C125.929 74.7569 125.8 74.6168 125.688 74.464C125.648 74.4088 125.611 74.3537 125.575 74.2985C125.543 74.2433 125.511 74.1881 125.483 74.1287C125.471 74.1075 125.463 74.0905 125.451 74.0693C125.431 74.0311 125.414 73.9886 125.398 73.9504C125.334 73.7849 125.282 73.6151 125.246 73.4326C125.238 73.3859 125.23 73.3392 125.221 73.2925C125.221 73.2798 125.217 73.2713 125.217 73.2585C125.201 73.1609 125.193 73.0633 125.189 72.9614C125.185 72.8511 125.185 72.7407 125.193 72.6261C125.193 72.6049 125.193 72.5836 125.197 72.5582C125.197 72.5072 125.205 72.4521 125.213 72.3969C125.217 72.3587 125.221 72.3205 125.23 72.2823C125.23 72.2568 125.234 72.2398 125.238 72.2186C125.238 72.2101 125.238 72.2016 125.242 72.1931C125.246 72.1634 125.254 72.1337 125.258 72.104C125.27 72.0361 125.286 71.9639 125.306 71.896C125.398 71.5267 125.543 71.1659 125.728 70.8348C125.78 70.7457 125.829 70.6523 125.885 70.5674C125.997 70.3892 126.118 70.2236 126.251 70.0623C126.303 69.9986 126.355 69.935 126.411 69.8798C126.444 69.8416 126.476 69.8076 126.508 69.7737C126.621 69.6548 126.737 69.5445 126.858 69.4384C126.882 69.4171 126.906 69.3959 126.93 69.3789C126.978 69.3365 127.031 69.294 127.079 69.2601C127.119 69.2304 127.155 69.2007 127.191 69.1752C127.195 69.1752 127.199 69.1709 127.199 69.1667C127.248 69.1327 127.292 69.0988 127.34 69.0691C127.396 69.0266 127.461 68.9884 127.517 68.9545C127.601 68.9035 127.69 68.8526 127.778 68.8059C127.891 68.7465 128.003 68.6913 128.116 68.6446C128.389 68.53 128.671 68.4451 128.956 68.3899C129.169 68.3517 129.382 68.3305 129.599 68.3305C129.736 68.3305 129.873 68.339 130.002 68.356C130.066 68.3645 130.13 68.3772 130.19 68.3899C130.255 68.4027 130.315 68.4154 130.375 68.4324C130.617 68.5003 130.838 68.5979 131.035 68.721C131.111 68.7635 131.179 68.8144 131.248 68.8696C131.268 68.8823 131.288 68.9035 131.308 68.9205C131.36 68.963 131.409 69.0096 131.457 69.0563C131.481 69.0776 131.505 69.1073 131.525 69.1285C131.573 69.1752 131.614 69.2261 131.654 69.2771C131.666 69.294 131.678 69.311 131.694 69.3322C131.714 69.3577 131.734 69.3874 131.75 69.4129C131.795 69.4766 131.835 69.5445 131.875 69.6166C131.931 69.7227 131.983 69.8374 132.028 69.9562C132.04 69.9944 132.056 70.0326 132.068 70.0751C132.08 70.1175 132.092 70.1557 132.104 70.1981C132.116 70.2364 132.128 70.2788 132.136 70.3212C132.148 70.3722 132.156 70.4189 132.164 70.4656C132.172 70.5123 132.176 70.5632 132.184 70.6141C132.197 70.6905 132.205 70.7669 132.205 70.8518C132.209 70.9707 132.209 71.0895 132.201 71.2126L132.189 71.1872Z" fill="#FF006B"/>
<path d="M145.901 65.4059C145.865 65.3338 145.833 65.2658 145.797 65.1937C145.729 65.0579 145.664 64.9178 145.6 64.7904C145.56 64.7098 145.52 64.6334 145.479 64.557C145.419 64.4424 145.363 64.3278 145.302 64.2174C145.262 64.1368 145.218 64.0646 145.178 63.9882C145.122 63.8863 145.069 63.7845 145.013 63.6911C144.973 63.6147 144.929 63.5468 144.888 63.4746C144.836 63.3855 144.784 63.2963 144.736 63.2114C144.695 63.1393 144.655 63.0756 144.615 63.0077C144.567 62.927 144.518 62.8464 144.47 62.7742C144.43 62.7106 144.39 62.6511 144.354 62.5917C144.309 62.5196 144.261 62.4474 144.217 62.3837C144.177 62.3243 144.141 62.2734 144.104 62.2182C144.06 62.1545 144.02 62.0951 143.976 62.0357C143.94 61.9847 143.903 61.938 143.867 61.8913C143.827 61.8362 143.787 61.7852 143.747 61.7343C143.71 61.6876 143.678 61.6494 143.646 61.607C143.61 61.5603 143.574 61.5136 143.538 61.4711C143.505 61.4329 143.473 61.399 143.445 61.365C143.413 61.3268 143.377 61.2886 143.345 61.2546C143.316 61.2249 143.288 61.1952 143.26 61.1698C143.228 61.14 143.2 61.1061 143.168 61.0806C143.14 61.0551 143.115 61.0339 143.091 61.0127C143.063 60.9872 143.035 60.966 143.011 60.9448C142.987 60.9278 142.967 60.9108 142.943 60.8981C142.918 60.8811 142.894 60.8684 142.874 60.8556C142.854 60.8429 142.834 60.8344 142.818 60.8259C142.798 60.8174 142.778 60.809 142.762 60.8047C142.746 60.8005 142.729 60.7962 142.713 60.7962C142.705 60.7962 142.693 60.792 142.685 60.792C142.673 60.792 142.657 60.792 142.645 60.7962C142.396 60.8641 143.059 66.0384 143.602 69.9562C144.253 70.0156 144.925 70.143 145.604 70.3509C146.372 70.5844 147.099 70.9325 147.771 71.3782C147.558 70.0156 147.116 68.0801 146.203 66.0766C146.098 65.8474 145.994 65.6266 145.893 65.4144L145.901 65.4059Z" fill="#FF006B"/>
<path d="M141.407 61.174C140.997 61.2292 139.956 63.3939 139.135 67.6131C138.882 68.9035 138.774 70.1175 138.741 71.1787C140.032 70.3085 141.33 69.9944 142.432 69.9307C142.106 66.0256 141.652 61.1443 141.407 61.174Z" fill="#FF006B"/>
<path d="M129.181 93.3315C129.218 93.2169 129.25 93.1066 129.278 92.9919C129.322 92.8264 129.362 92.6651 129.403 92.5081C129.362 92.6694 129.322 92.8264 129.278 92.9962C129.246 93.1108 129.214 93.2212 129.181 93.3358V93.3315Z" fill="#9EFF00"/>
<path d="M129.595 68.3135C128.076 68.3135 126.52 69.3704 125.724 70.8263C125.539 71.1617 125.394 71.5182 125.302 71.8918C125.209 72.2653 125.169 72.6176 125.185 72.9572C125.189 73.0675 125.201 73.1779 125.217 73.284C125.326 74.0311 125.704 74.6508 126.279 75.037C126.689 75.3129 127.199 75.47 127.782 75.47C128.482 75.47 129.193 75.245 129.833 74.8588C130.898 74.2178 131.766 73.1269 132.08 71.8918C132.172 71.5225 132.213 71.1659 132.197 70.8263C132.136 69.3704 131.119 68.3135 129.599 68.3135H129.595Z" fill="white"/>
<path d="M80.4765 74.7739C76.8342 74.4895 73.0472 72.7322 73.7387 68.6786C74.3457 65.13 78.0162 64.4381 81.6907 64.8287C83.6405 65.0366 86.4104 66.2761 88.5893 67.3924C88.5089 67.0826 88.4285 66.777 88.3401 66.4756C88.328 66.4374 88.32 66.3949 88.3079 66.361C88.2717 66.2379 88.2315 66.1148 88.1954 65.9959C88.1793 65.945 88.1632 65.8898 88.1471 65.8389C88.1069 65.7243 88.0707 65.6097 88.0305 65.4951C88.0104 65.4399 87.9903 65.3847 87.9742 65.3295C87.934 65.2149 87.8938 65.1046 87.8536 64.9942C87.8335 64.939 87.8134 64.8881 87.7893 64.8329C87.7491 64.7225 87.7049 64.6122 87.6607 64.5018C87.6406 64.4509 87.6205 64.4042 87.6004 64.3533C87.5521 64.2386 87.5079 64.1283 87.4597 64.0179C87.4476 63.9882 87.4355 63.9627 87.4194 63.933C87.2506 63.5553 87.0737 63.1902 86.8807 62.8337C86.8526 62.7827 86.8245 62.7318 86.7963 62.6809C86.7481 62.5917 86.6958 62.5026 86.6476 62.4177C86.6114 62.3583 86.5792 62.2988 86.539 62.2394C86.4908 62.1545 86.4425 62.0739 86.3903 61.9932C86.3501 61.9296 86.3099 61.8659 86.2697 61.8022C86.2174 61.7258 86.1692 61.6494 86.1169 61.573C86.0727 61.5093 86.0285 61.4414 85.9802 61.3777C85.932 61.3056 85.8837 61.2334 85.8315 61.1655C85.7792 61.0934 85.731 61.0254 85.6787 60.9575C85.6305 60.8939 85.5822 60.8302 85.534 60.7665C85.4696 60.6816 85.4013 60.5967 85.333 60.5161C85.2887 60.4609 85.2485 60.41 85.2043 60.3548C85.1038 60.2359 85.0033 60.1171 84.8988 60.0067C84.8586 59.96 84.8144 59.9176 84.7742 59.8709C84.6978 59.7902 84.6254 59.7096 84.549 59.6332C84.5008 59.5823 84.4566 59.5356 84.4083 59.4889C84.3319 59.4167 84.2596 59.3403 84.1832 59.2724C84.1349 59.2257 84.0867 59.179 84.0385 59.1366C83.958 59.0644 83.8817 58.9923 83.8013 58.9243C83.753 58.8819 83.7048 58.8394 83.6525 58.7927C83.5681 58.7206 83.4796 58.6484 83.3952 58.5763C83.347 58.5381 83.3028 58.5041 83.2545 58.4617C83.154 58.381 83.0535 58.3046 82.949 58.2282C82.9128 58.2027 82.8726 58.173 82.8404 58.1476C82.551 57.9353 82.2575 57.7358 81.9479 57.5406C81.9158 57.5194 81.8796 57.5024 81.8474 57.4812C81.7268 57.409 81.6022 57.3326 81.4816 57.2647C81.4293 57.235 81.3811 57.2095 81.3288 57.1798C81.2203 57.1204 81.1077 57.0567 80.9952 56.9973C80.9389 56.9633 80.8786 56.9378 80.8223 56.9081C80.7137 56.8529 80.6052 56.7978 80.4926 56.7426C80.4283 56.7086 80.368 56.6832 80.3037 56.6534C80.1911 56.5983 80.0785 56.5516 79.966 56.5006C79.9017 56.4709 79.8373 56.4412 79.773 56.4157C79.6524 56.3648 79.5318 56.3139 79.4112 56.2672C79.3469 56.2417 79.2866 56.2162 79.2263 56.1908C79.0775 56.1314 78.9288 56.0762 78.776 56.021C78.7398 56.0083 78.7077 55.9955 78.6675 55.9828C77.9036 55.7069 77.1961 55.5541 76.5287 55.4947C75.0774 55.3673 73.8392 55.7026 72.7135 56.2417C70.414 57.3411 68.5888 59.2851 66.4259 59.96C66.2249 60.0195 66.0239 60.0746 65.8148 60.1128C62.2328 60.7835 57.2639 56.6662 51.0687 61.4924C50.9079 61.6197 50.7511 61.7428 50.6024 61.8744C50.5943 61.8786 50.5903 61.8829 50.5823 61.8871C50.4416 62.006 50.3049 62.1248 50.1722 62.2479C50.1441 62.2691 50.1199 62.2946 50.0918 62.3201C49.9792 62.4219 49.8667 62.528 49.7581 62.6342C49.726 62.6681 49.6938 62.6978 49.6657 62.7275C49.5652 62.8294 49.4606 62.9355 49.3641 63.0374L49.2717 63.135C49.1712 63.2412 49.0707 63.3515 48.9782 63.4661C48.9541 63.4916 48.93 63.5213 48.9058 63.551C48.7933 63.6784 48.6847 63.8099 48.5802 63.9458C48.5722 63.9543 48.5681 63.9585 48.5601 63.9712C48.331 64.2599 48.1139 64.557 47.9129 64.8584C47.8968 64.8838 47.8807 64.9093 47.8646 64.9305C47.7842 65.0536 47.7038 65.1767 47.6274 65.2998C47.6033 65.338 47.5792 65.3805 47.551 65.4187C47.4867 65.529 47.4224 65.6436 47.354 65.754L47.2777 65.8941C47.2174 66.0002 47.1571 66.1105 47.1008 66.2251C47.0766 66.2718 47.0525 66.3185 47.0284 66.3652C46.9721 66.4798 46.9158 66.5987 46.8596 66.7175C46.8395 66.76 46.8194 66.7982 46.8033 66.8406C46.7389 66.9807 46.6786 67.1208 46.6183 67.2651C46.6103 67.2863 46.6023 67.3033 46.5942 67.3203C46.5259 67.4858 46.4575 67.6556 46.3932 67.8254C46.3932 67.8296 46.3932 67.8339 46.3932 67.8339C46.3329 67.9952 46.2766 68.1565 46.2244 68.3135C46.2083 68.356 46.1962 68.4027 46.1801 68.4493C46.1399 68.5682 46.1038 68.6913 46.0676 68.8144C46.0515 68.8696 46.0354 68.9247 46.0193 68.9799C45.9872 69.0945 45.955 69.2049 45.9228 69.3195C45.9108 69.3789 45.8907 69.4383 45.8786 69.4978C45.8505 69.6124 45.8223 69.7227 45.7982 69.8373C45.7862 69.8968 45.7741 69.9562 45.758 70.0156C45.7339 70.1345 45.7098 70.2576 45.6857 70.3764C45.6736 70.4316 45.6656 70.4825 45.6535 70.5377C45.6294 70.682 45.6052 70.8264 45.5811 70.9707C45.5771 71.0046 45.5731 71.0301 45.5691 71.0641C45.5409 71.2423 45.5168 71.4164 45.4967 71.5989C45.4927 71.6413 45.4887 71.6838 45.4846 71.7262C45.4686 71.862 45.4525 71.9979 45.4444 72.1337C45.4364 72.2016 45.4324 72.2653 45.4284 72.3332C45.4203 72.4478 45.4083 72.5582 45.4042 72.6728C45.4002 72.7492 45.3962 72.8213 45.3922 72.8977C45.3841 73.0039 45.3801 73.11 45.3801 73.2161C45.3761 73.2967 45.3721 73.3731 45.3721 73.4538C45.3721 73.5599 45.3721 73.6618 45.3681 73.7637V74.0056C45.3681 74.1075 45.3681 74.2136 45.3681 74.3155C45.3681 74.3961 45.3681 74.4768 45.3721 74.5617C45.3721 74.6678 45.3801 74.7739 45.3841 74.88C45.3922 75.0243 45.3962 75.1729 45.4083 75.3172C45.4123 75.4233 45.4203 75.5252 45.4284 75.6313C47.2093 73.7127 50.0315 70.9112 52.1743 69.8968C55.5472 68.305 59.2378 67.7447 60.87 70.9112C62.7354 74.5319 59.6639 77.4565 56.2869 78.9337C53.3401 80.224 49.8064 82.9491 48.2666 84.9313C48.4033 85.1478 48.544 85.3643 48.6888 85.5765C48.7531 85.6657 48.8134 85.7548 48.8777 85.8397C48.9822 85.9883 49.0868 86.1368 49.1993 86.2812C49.2757 86.383 49.3561 86.4849 49.4325 86.5825C49.533 86.7141 49.6415 86.8414 49.7461 86.9688C49.8265 87.0664 49.9069 87.1598 49.9913 87.2574C50.1199 87.4017 50.2526 87.5461 50.3853 87.6861C50.4737 87.7838 50.5662 87.8771 50.6546 87.9705C50.8154 88.1361 50.9843 88.2974 51.1531 88.4587C51.2376 88.5435 51.33 88.62 51.4225 88.7006C51.5471 88.8152 51.6717 88.9256 51.8004 89.0359C51.8969 89.1166 51.9893 89.1972 52.0899 89.2779C52.2265 89.3882 52.3672 89.4944 52.508 89.6047C52.5964 89.6726 52.6808 89.7405 52.7733 89.8042C52.9904 89.9655 53.2155 90.1226 53.4406 90.2754C53.521 90.3305 53.6095 90.3815 53.6899 90.4367C53.8507 90.5428 54.0115 90.6447 54.1763 90.7423C54.2768 90.8017 54.3773 90.8611 54.4819 90.9206C54.6387 91.0097 54.7995 91.0988 54.9603 91.188C55.0608 91.2432 55.1573 91.2941 55.2578 91.3493C55.4668 91.4554 55.6799 91.5615 55.897 91.6634C55.9533 91.6888 56.0055 91.7186 56.0618 91.744C56.3191 91.8629 56.5764 91.9732 56.8377 92.0793C56.9342 92.1175 57.0267 92.1558 57.1231 92.194C57.3081 92.2661 57.5011 92.3383 57.69 92.4062C57.7905 92.4444 57.891 92.4783 57.9915 92.5123C58.2006 92.5845 58.4096 92.6481 58.6227 92.716C58.7031 92.7415 58.7795 92.767 58.8559 92.7882C59.1453 92.8731 59.4388 92.9537 59.7323 93.0302C59.7966 93.0429 59.8649 93.0599 59.9333 93.0768C60.1665 93.132 60.4036 93.183 60.6408 93.2339C60.7373 93.2551 60.8378 93.2721 60.9343 93.2933C61.1554 93.3358 61.3765 93.374 61.6017 93.4122C61.6941 93.4249 61.7866 93.4419 61.875 93.4546C62.4982 93.548 63.1334 93.6159 63.7766 93.6626C63.865 93.6711 63.9575 93.6753 64.046 93.6796C64.2872 93.6923 64.5244 93.7051 64.7656 93.7093C64.8661 93.7135 64.9666 93.7178 65.0671 93.7178C65.3244 93.722 65.5817 93.722 65.843 93.7178C65.9153 93.7178 65.9877 93.7178 66.0601 93.7178C66.3897 93.7093 66.7194 93.6966 67.0571 93.6796C67.1335 93.6753 67.2099 93.6669 67.2862 93.6626C67.5435 93.6456 67.8008 93.6244 68.0621 93.5989C68.1747 93.5904 68.2913 93.5777 68.4079 93.565C68.637 93.5395 68.8702 93.5098 69.0994 93.4801C69.2159 93.4674 69.3325 93.4504 69.4451 93.4334C69.7386 93.3909 70.0361 93.3443 70.3295 93.2891C70.3697 93.2806 70.4099 93.2763 70.4542 93.2679C70.7275 93.2169 70.9969 93.166 71.2622 93.1066C71.2984 93.0981 71.3346 93.0938 71.3708 93.0853C71.9095 92.9665 72.4361 92.8307 72.9588 92.6821C72.9909 92.6736 73.0231 92.6651 73.0512 92.6566C73.3125 92.5802 73.5738 92.5038 73.8271 92.4189C73.8392 92.4189 73.8512 92.4104 73.8633 92.4104C74.1126 92.3298 74.3578 92.2449 74.599 92.1558C74.6231 92.1473 74.6472 92.1388 74.6754 92.1303C74.9246 92.0412 75.1739 91.9478 75.4191 91.8459C75.4432 91.8374 75.4633 91.8289 75.4875 91.8204C75.7247 91.7228 75.9578 91.6252 76.191 91.5275C76.2071 91.5191 76.2232 91.5148 76.2392 91.5063C76.4805 91.4002 76.7177 91.2898 76.9508 91.1752C76.983 91.1625 77.0071 91.1455 77.0393 91.1328C77.2684 91.0182 77.5016 90.9036 77.7267 90.7847C77.7267 90.7847 77.7281 90.7847 77.7307 90.7847C77.9599 90.6659 78.185 90.5428 78.4142 90.4154C78.4463 90.3985 78.4785 90.3772 78.5107 90.3603C78.9529 90.1056 79.3871 89.8382 79.8052 89.5623C79.8373 89.541 79.8695 89.5198 79.9017 89.5028C80.3198 89.2227 80.7298 88.9341 81.1238 88.6327C81.156 88.6115 81.1801 88.5902 81.2122 88.5648C81.4092 88.4162 81.6022 88.2592 81.7952 88.1021C81.8072 88.0936 81.8193 88.0809 81.8314 88.0724C82.0123 87.9238 82.1892 87.771 82.366 87.614C82.3902 87.5927 82.4143 87.5715 82.4424 87.5503C82.6233 87.389 82.8043 87.2235 82.9811 87.0579C83.0012 87.0367 83.0213 87.0197 83.0374 87.0027C83.2023 86.8414 83.3671 86.6844 83.5279 86.5231C83.544 86.5061 83.56 86.4891 83.5801 86.4722C83.749 86.2981 83.9138 86.1241 84.0787 85.9458C84.1028 85.9204 84.1269 85.8949 84.147 85.8694C84.3038 85.6996 84.4566 85.5214 84.6093 85.3473C84.6174 85.3388 84.6214 85.3303 84.6294 85.3219C84.7862 85.1393 84.939 84.9526 85.0877 84.7658C85.1118 84.7361 85.136 84.7064 85.1561 84.6767C85.4536 84.2989 85.739 83.9126 86.0043 83.5221C86.0244 83.4924 86.0445 83.4627 86.0646 83.433C86.334 83.0382 86.5832 82.6307 86.8204 82.219C86.8365 82.1935 86.8526 82.1638 86.8727 82.1341C86.9893 81.9261 87.1059 81.7181 87.2184 81.5017C87.2184 81.4974 87.2225 81.4932 87.2265 81.4889C87.335 81.2809 87.4396 81.073 87.5401 80.8607C87.5521 80.8353 87.5642 80.8098 87.5762 80.7843C87.6767 80.5678 87.7773 80.3514 87.8697 80.1349C87.8737 80.1179 87.8818 80.1009 87.8898 80.0882C87.9823 79.876 88.0667 79.6595 88.1471 79.443C88.1551 79.4303 88.1592 79.409 88.1672 79.3921C88.2516 79.1671 88.332 78.9421 88.4084 78.7129C88.4165 78.6917 88.4205 78.6705 88.4285 78.6493C88.5049 78.4243 88.5733 78.1993 88.6416 77.9701C88.6416 77.9701 88.6416 77.9659 88.6456 77.9616C88.714 77.7282 88.7743 77.4947 88.8305 77.2613C88.8346 77.2528 88.8386 77.24 88.8386 77.2273C86.6154 76.077 83.1982 75.0243 80.4926 74.8121L80.4765 74.7739ZM64.5967 75.2705C64.6007 75.1984 64.6128 75.1262 64.6289 75.0583C64.6409 75.0158 64.649 74.9691 64.6651 74.9267C64.6771 74.8842 64.6892 74.846 64.7053 74.8078C64.7173 74.7696 64.7334 74.7357 64.7535 74.6932C64.7776 74.6381 64.8058 74.5786 64.8379 74.5277C64.846 74.515 64.85 74.5022 64.8621 74.4895C64.8701 74.4768 64.8781 74.4598 64.8862 74.447C64.9183 74.3919 64.9545 74.3367 64.9947 74.2857C65.0148 74.2603 65.0349 74.2348 65.055 74.2051C65.0751 74.1796 65.0952 74.1542 65.1193 74.1245C65.1193 74.1202 65.1234 74.116 65.1314 74.1117C65.1435 74.099 65.1555 74.082 65.1716 74.0693C65.1716 74.065 65.1796 74.0608 65.1877 74.0523C65.2199 74.0183 65.252 73.9844 65.2842 73.9504C65.3163 73.9165 65.3525 73.8825 65.3847 73.8528C65.4329 73.8104 65.4852 73.7637 65.5375 73.7212C65.5897 73.6788 65.646 73.6363 65.6983 73.5939C65.7304 73.5684 65.7626 73.5472 65.7947 73.526C65.8993 73.4538 66.0078 73.3816 66.1244 73.3222C66.3093 73.2203 66.5063 73.1227 66.7194 73.0378C67.1415 72.8723 67.6038 72.7449 68.0943 72.6728C68.3395 72.6388 68.5888 72.6091 68.826 72.5879C68.9466 72.5794 69.0672 72.5709 69.1838 72.5667C69.2963 72.5624 69.4129 72.5582 69.5215 72.5582C69.63 72.5582 69.7426 72.5582 69.8511 72.5667C69.8994 72.5667 69.9436 72.5667 69.9878 72.5752C70.1406 72.5836 70.2893 72.5964 70.43 72.6176C70.5104 72.6261 70.5868 72.6431 70.6632 72.6558C70.7195 72.6685 70.7798 72.6813 70.8361 72.694C70.9004 72.7067 70.9647 72.728 71.025 72.7449C71.0853 72.7619 71.1456 72.7831 71.2019 72.8044C71.2863 72.8341 71.3627 72.868 71.4431 72.9062C71.4713 72.919 71.4954 72.9317 71.5235 72.9487C71.624 73.0039 71.7125 73.0633 71.7969 73.1312C71.8452 73.1694 71.8894 73.2119 71.9256 73.2543C71.9738 73.3052 72.018 73.3604 72.0542 73.4156C72.0703 73.4411 72.0864 73.4665 72.1025 73.492C72.1266 73.5302 72.1507 73.5726 72.1668 73.6193C72.1788 73.6533 72.1909 73.6873 72.203 73.7212C72.215 73.7509 72.2231 73.7806 72.2311 73.8188C72.2351 73.8358 72.2391 73.857 72.2432 73.874C72.2512 73.908 72.2552 73.9419 72.2633 73.9759C72.2753 74.0565 72.2793 74.1414 72.2793 74.2263C72.2793 74.2645 72.2793 74.307 72.2753 74.3452C72.2753 74.3749 72.2713 74.4004 72.2673 74.4301C72.2633 74.4725 72.2592 74.5192 72.2512 74.5659C72.2311 74.6932 72.1989 74.8248 72.1587 74.9607C72.1386 75.0158 72.1226 75.0753 72.1025 75.1304C72.0904 75.1729 72.0703 75.2196 72.0502 75.262C71.9818 75.4276 71.8934 75.5973 71.7929 75.7586C71.7849 75.7756 71.7728 75.7926 71.7607 75.8053C71.7527 75.8223 71.7406 75.8393 71.7286 75.8563C71.6884 75.9199 71.6441 75.9836 71.5959 76.0473C71.5477 76.1067 71.4994 76.1704 71.4512 76.2298C71.3989 76.2892 71.3467 76.3487 71.2904 76.4081C71.2381 76.4633 71.1818 76.5184 71.1296 76.5694C71.0974 76.6033 71.0652 76.6288 71.0331 76.6585C70.8803 76.7943 70.7115 76.9217 70.5346 77.0363C70.4381 77.0957 70.3416 77.1551 70.2411 77.2061C70.1848 77.2315 70.1325 77.2613 70.0763 77.2867C70.0361 77.3079 69.9959 77.3249 69.9557 77.3377C69.8913 77.3631 69.831 77.3886 69.7667 77.4098C69.6541 77.448 69.5416 77.482 69.429 77.5117C69.3124 77.5372 69.1958 77.5626 69.0712 77.5796C67.0048 77.881 64.7897 76.9302 64.6168 75.5889C64.6048 75.4827 64.6007 75.3724 64.6088 75.2663L64.5967 75.2705ZM75.2503 77.4056C75.2503 77.4056 75.2503 77.4098 75.2463 77.4141C75.2382 77.4268 75.2181 77.4608 75.194 77.5032C75.1859 77.5202 75.1739 77.5372 75.1578 77.5584C75.1176 77.6221 75.0613 77.7027 74.993 77.8003C74.9447 77.864 74.8965 77.9319 74.8322 78.0083C74.7196 78.1484 74.5829 78.3054 74.4221 78.4752C74.394 78.5049 74.3658 78.5304 74.3377 78.5601C74.2894 78.6111 74.2412 78.662 74.1849 78.7087C74.1045 78.7893 74.0161 78.87 73.9236 78.9506C73.8713 78.9973 73.8231 79.0398 73.7668 79.0865C73.7065 79.1374 73.6462 79.1883 73.5819 79.235C73.3286 79.4345 73.0432 79.6383 72.7216 79.8335C72.5608 79.9354 72.3919 80.0288 72.215 80.1222C71.8612 80.3132 71.4713 80.4872 71.0411 80.6442C70.615 80.8013 70.1486 80.9371 69.6421 81.0475C69.5577 81.0645 69.4732 81.0857 69.3848 81.0984C69.1999 81.1324 69.0149 81.1621 68.834 81.1876C68.7215 81.2003 68.6129 81.213 68.5044 81.2258C68.3757 81.2385 68.2471 81.247 68.1224 81.2555C68.034 81.2597 67.9456 81.264 67.8611 81.2682C67.7526 81.2682 67.6481 81.2725 67.5476 81.2725C64.8902 81.2725 62.9163 80.241 62.8117 80.1858C62.7876 80.1731 62.7635 80.1561 62.7394 80.1391C62.7153 80.1264 62.6952 80.1052 62.6751 80.084C62.659 80.0712 62.6429 80.05 62.6308 80.033C62.6228 80.0203 62.6107 80.0118 62.6067 79.9991C62.5866 79.9736 62.5705 79.9439 62.5585 79.9142C62.5384 79.876 62.5223 79.842 62.5143 79.7996C62.4781 79.6552 62.4901 79.4982 62.5545 79.3581C62.5786 79.3029 62.6107 79.2562 62.6509 79.2138C62.6509 79.2053 62.659 79.2053 62.659 79.2053C62.667 79.1926 62.6791 79.1798 62.6911 79.1714C62.6992 79.1629 62.7032 79.1586 62.7153 79.1501C62.7233 79.1416 62.7273 79.1374 62.7394 79.1331C62.7555 79.1204 62.7715 79.1077 62.7876 79.0992C62.8238 79.078 62.86 79.061 62.8962 79.0483C62.9082 79.044 62.9243 79.0398 62.9364 79.0355C62.9565 79.0313 62.9766 79.027 63.0007 79.0228C63.1092 79.0101 63.2218 79.027 63.3304 79.0822C63.3545 79.0949 66.1606 80.5466 69.4009 79.8378C69.622 79.7868 69.8351 79.7359 70.0401 79.6765C70.1165 79.6552 70.1888 79.634 70.2612 79.6086C70.3094 79.5958 70.3577 79.5746 70.4059 79.5619C70.5265 79.5237 70.6471 79.4812 70.7637 79.4345C70.8321 79.4091 70.9004 79.3793 70.9647 79.3539C70.9848 79.3454 71.0009 79.3411 71.021 79.3284C71.0894 79.3029 71.1577 79.269 71.226 79.2393C71.3185 79.1968 71.411 79.1544 71.4994 79.1077C71.5678 79.0737 71.6361 79.0398 71.7045 79.0016C72.1266 78.7808 72.4924 78.5389 72.7979 78.3012C72.8583 78.2587 72.9186 78.2121 72.9708 78.1654C73.0191 78.1272 73.0633 78.0932 73.1035 78.055C73.1437 78.021 73.1879 77.9828 73.2281 77.9489C73.2683 77.9149 73.3085 77.881 73.3447 77.8428C73.3769 77.8131 73.409 77.7833 73.4412 77.7536C73.5497 77.6475 73.6502 77.5414 73.7347 77.448C73.799 77.3801 73.8553 77.3122 73.9035 77.2485C73.9276 77.2188 73.9517 77.1891 73.9759 77.1594C74.0201 77.1042 74.0603 77.0533 74.0925 77.0066C74.1889 76.8707 74.2372 76.7901 74.2372 76.7816C74.398 76.4887 74.7558 76.3911 75.0332 76.5651C75.0734 76.5906 75.1096 76.6161 75.1377 76.65C75.1498 76.6585 75.1578 76.6712 75.1699 76.684C75.202 76.7179 75.2262 76.7561 75.2463 76.7986C75.2583 76.8198 75.2664 76.8368 75.2744 76.858C75.2744 76.8623 75.2784 76.8665 75.2784 76.8707C75.2865 76.8877 75.2905 76.9047 75.2985 76.9259C75.3025 76.9387 75.3066 76.9471 75.3066 76.9599C75.3146 76.9811 75.3146 76.9981 75.3186 77.0193C75.3387 77.1509 75.3146 77.2825 75.2463 77.4056H75.2503Z" fill="white"/>
<path d="M127.565 87.7243C127.545 87.7583 127.529 87.7922 127.509 87.8262C127.465 87.9068 127.417 87.9875 127.372 88.0681C127.352 88.1106 127.324 88.153 127.304 88.1955C127.276 88.2464 127.248 88.2974 127.22 88.3483C127.179 88.4247 127.135 88.5011 127.091 88.5775C127.063 88.6284 127.035 88.6751 127.006 88.7218C126.97 88.7897 126.93 88.8534 126.894 88.9171C126.882 88.9383 126.87 88.9595 126.858 88.985C126.6 89.4349 126.327 89.9061 126.046 90.3857C125.326 91.6167 124.562 92.8943 123.931 93.9428C123.818 94.1338 123.706 94.3163 123.601 94.4903C123.493 94.6643 123.396 94.8299 123.3 94.9869C123.252 95.0633 123.207 95.1397 123.163 95.2119C122.114 94.1847 120.86 93.705 119.589 93.565C119.593 93.5565 119.601 93.5438 119.605 93.531C119.633 93.4801 119.658 93.4291 119.69 93.374C119.69 93.374 119.69 93.3726 119.69 93.3697C119.758 93.2424 119.842 93.0981 119.931 92.941C120.116 92.6312 120.349 92.2661 120.622 91.8714C120.622 91.8671 120.63 91.8629 120.63 91.8586C120.92 91.4426 121.262 90.9927 121.66 90.5258C121.668 90.5173 121.676 90.5046 121.684 90.4961C122.009 90.1141 122.371 89.7278 122.769 89.3458C122.85 89.2694 122.93 89.193 123.01 89.1166C123.022 89.1081 123.03 89.0996 123.043 89.0911C123.159 88.985 123.276 88.8789 123.396 88.7728C126.223 86.3236 128.148 85.4832 128.49 85.7251C128.582 85.7888 128.184 86.5952 127.557 87.7328L127.565 87.7243Z" fill="#FF006B"/>
<path d="M129.407 92.5081C129.386 92.5887 129.366 92.6694 129.342 92.75C129.322 92.8349 129.302 92.9113 129.278 92.9962C129.266 93.0514 129.246 93.1108 129.23 93.166C129.218 93.2254 129.197 93.2806 129.181 93.3358C129.173 93.357 129.165 93.3825 129.157 93.4037C129.133 93.4928 129.105 93.582 129.073 93.6669C129.061 93.7008 129.053 93.7305 129.041 93.7645C129.013 93.8451 128.984 93.9258 128.956 94.0022C128.944 94.0361 128.932 94.0701 128.916 94.1041C128.888 94.1805 128.86 94.2569 128.832 94.3333L128.791 94.4351C128.759 94.5115 128.731 94.5837 128.699 94.6601C128.687 94.6941 128.671 94.728 128.659 94.762C128.627 94.8384 128.594 94.9105 128.562 94.9869C128.546 95.0209 128.53 95.0506 128.518 95.0846C128.482 95.1567 128.45 95.2331 128.414 95.3053C128.401 95.3393 128.385 95.369 128.369 95.3987C128.333 95.4751 128.297 95.5472 128.261 95.6236C128.245 95.6534 128.229 95.6831 128.213 95.7128C128.176 95.7849 128.136 95.8613 128.1 95.9335C128.084 95.959 128.068 95.9887 128.056 96.0184C128.016 96.0948 127.975 96.1712 127.935 96.2434C127.923 96.2688 127.911 96.2901 127.899 96.3113C127.851 96.3962 127.806 96.4768 127.762 96.5532C127.754 96.5702 127.746 96.5872 127.738 96.5999C127.686 96.6975 127.63 96.7867 127.577 96.8758C127.577 96.8758 127.577 96.8801 127.573 96.8843C127.465 97.0668 127.356 97.2494 127.244 97.4234C127.22 97.4616 127.199 97.4955 127.175 97.5295C127.143 97.5762 127.115 97.6271 127.083 97.6738C127.051 97.7163 127.023 97.763 126.994 97.8096C126.97 97.8436 126.946 97.8776 126.926 97.9115C126.89 97.9625 126.858 98.0134 126.822 98.0643C126.805 98.0855 126.789 98.111 126.773 98.1365C126.733 98.1917 126.693 98.2511 126.653 98.3063C126.645 98.319 126.633 98.3317 126.625 98.3487C126.58 98.4124 126.536 98.4761 126.496 98.5312C126.496 98.5355 126.492 98.5397 126.488 98.544C125.917 99.3462 125.455 99.898 125.314 100.064C125.177 98.5864 124.727 97.1008 123.742 95.8529C124.554 94.5667 126.013 92.2873 127.304 90.3433C128.152 89.0657 128.928 87.9323 129.411 87.3211C129.419 87.3126 129.427 87.2999 129.435 87.2871C129.471 87.2447 129.503 87.2022 129.535 87.1598C129.555 87.1386 129.571 87.1174 129.587 87.1004C129.6 87.0834 129.616 87.0664 129.628 87.0494C129.656 87.0155 129.68 86.99 129.704 86.9645C129.712 86.9561 129.716 86.9518 129.724 86.9433C129.744 86.9221 129.764 86.9051 129.78 86.8881C129.784 86.8839 129.788 86.8797 129.792 86.8754C129.813 86.8584 129.829 86.8499 129.845 86.8414C129.845 86.8414 129.849 86.8414 129.853 86.8414C129.865 86.833 129.877 86.833 129.889 86.8414C130.219 87.0664 130.267 89.0826 129.403 92.4996L129.407 92.5081Z" fill="#FF006B"/>
<path d="M60.8579 70.8985C59.2257 67.732 55.5352 68.2923 52.1622 69.884C50.0194 70.8943 47.1973 73.7 45.4163 75.6186C45.4163 75.6186 45.4163 75.6313 45.4163 75.6355C45.4605 76.2425 45.5289 76.8495 45.6173 77.4692C45.6495 77.673 45.6816 77.881 45.7138 78.0847C45.7218 78.1229 45.7299 78.1654 45.7379 78.2036C45.7902 78.5007 45.8465 78.7936 45.9108 79.0864C45.9389 79.2138 45.9711 79.3326 46.0033 79.46C46.0515 79.6637 46.0997 79.8675 46.156 80.067C46.1922 80.2028 46.2364 80.3344 46.2766 80.466C46.3289 80.6527 46.3852 80.8352 46.4455 81.0178C46.4897 81.1536 46.5379 81.2852 46.5822 81.4168C46.6465 81.595 46.7108 81.7691 46.7751 81.9389C46.8274 82.0704 46.8797 82.1978 46.9319 82.3294C47.0003 82.4949 47.0726 82.6647 47.149 82.8302C47.2053 82.9576 47.2616 83.0849 47.3219 83.208C47.3983 83.3693 47.4787 83.5264 47.5591 83.6834C47.6234 83.8107 47.6877 83.9338 47.7561 84.0569C47.8365 84.2055 47.9209 84.3456 48.0053 84.4899C48.0817 84.6172 48.15 84.7488 48.2305 84.8719C48.2385 84.8846 48.2425 84.9016 48.2546 84.9144C49.7983 82.9321 53.3281 80.2113 56.2749 78.9167C59.6478 77.4395 62.7233 74.5149 60.8579 70.8943V70.8985ZM58.8639 73.0845C58.8639 73.1057 58.8599 73.1312 58.8559 73.1524C58.8559 73.1609 58.8518 73.1736 58.8438 73.1906C58.8398 73.2118 58.8317 73.2416 58.8197 73.2798C58.8116 73.3052 58.8036 73.3349 58.7915 73.3646C58.7795 73.4156 58.7594 73.4665 58.7353 73.5302C58.7111 73.5896 58.687 73.6575 58.6589 73.7297C58.6428 73.7636 58.6267 73.8018 58.6106 73.8401C58.5986 73.874 58.5825 73.9037 58.5664 73.9377C58.5664 73.9462 58.5584 73.9504 58.5584 73.9589C58.5182 74.0395 58.478 74.1202 58.4297 74.2051C58.4177 74.2306 58.3976 74.2603 58.3815 74.29C58.3493 74.3409 58.3172 74.3919 58.285 74.447C58.2649 74.481 58.2448 74.5149 58.2207 74.5447C58.2006 74.5786 58.1764 74.6126 58.1523 74.6423C58.084 74.7442 58.0036 74.8418 57.9192 74.9394C57.8629 75.0073 57.8026 75.071 57.7382 75.1347C57.7061 75.1686 57.6739 75.1983 57.6418 75.2323C57.5975 75.2747 57.5493 75.3172 57.5011 75.3596C57.4769 75.3809 57.4568 75.3978 57.4327 75.4191C57.3804 75.4615 57.3242 75.504 57.2719 75.5464C57.2357 75.5719 57.1995 75.6016 57.1634 75.627C57.1232 75.6568 57.0789 75.6865 57.0347 75.7119C56.9985 75.7332 56.9664 75.7544 56.9302 75.7756C56.8257 75.8393 56.7131 75.8987 56.5925 75.9539C56.5241 75.9878 56.4558 76.0133 56.3875 76.043C56.3231 76.0685 56.2548 76.094 56.1864 76.1152C56.1704 76.1237 56.1543 76.1279 56.1342 76.1322C55.9935 76.1831 55.8487 76.2213 55.696 76.251C55.6116 76.2722 55.5271 76.285 55.4387 76.3019C55.294 76.3232 55.1533 76.3402 55.0166 76.3529C54.8799 76.3656 54.7472 76.3699 54.6226 76.3699C54.5261 76.3699 54.4377 76.3699 54.3452 76.3614C54.3412 76.3614 54.3372 76.3614 54.3372 76.3614C54.2487 76.3571 54.1603 76.3486 54.0758 76.3359C54.0397 76.3317 54.0035 76.3274 53.9673 76.3232C53.8909 76.3104 53.8185 76.2977 53.7462 76.2807C53.706 76.2722 53.6658 76.2637 53.6256 76.2553C53.5813 76.2468 53.5371 76.234 53.4969 76.2213C53.4165 76.2001 53.3361 76.1746 53.2597 76.1449C53.2235 76.1322 53.1874 76.1194 53.1512 76.1067C53.1029 76.0855 53.0587 76.0685 53.0145 76.0515C52.6125 75.8732 52.2989 75.6483 52.0698 75.4318C52.0336 75.3978 51.9974 75.3639 51.9612 75.3299C51.8165 75.1856 51.7079 75.054 51.6356 74.9521C51.6275 74.9394 51.6155 74.9267 51.6114 74.9139C51.5632 74.846 51.531 74.7993 51.519 74.7781C51.519 74.7739 51.515 74.7696 51.515 74.7696C51.5069 74.7484 51.4949 74.7314 51.4868 74.7144C51.4788 74.6932 51.4748 74.6762 51.4667 74.6593C51.4587 74.638 51.4547 74.6211 51.4506 74.5998C51.4466 74.5744 51.4426 74.5532 51.4386 74.5277C51.4225 74.4003 51.4466 74.273 51.5069 74.1584C51.531 74.1117 51.5632 74.0693 51.5994 74.0311C51.6356 73.9929 51.6758 73.9589 51.72 73.9292C51.7682 73.8995 51.8165 73.8783 51.8647 73.8655C52.0054 73.8231 52.1542 73.8443 52.2828 73.9122C52.311 73.9249 52.3351 73.9462 52.3632 73.9631C52.3833 73.9801 52.4034 73.9971 52.4195 74.0141C52.4557 74.0523 52.4879 74.0947 52.516 74.1414C52.5281 74.1626 52.6125 74.2985 52.7853 74.464C52.8055 74.4852 52.8255 74.5022 52.8457 74.5192C52.8658 74.5404 52.8859 74.5574 52.91 74.5744C52.9462 74.6041 52.9864 74.6338 53.0266 74.6635C53.0587 74.689 53.0949 74.7145 53.1311 74.7357C53.1673 74.7611 53.2075 74.7824 53.2477 74.8036C53.2879 74.8291 53.3321 74.8503 53.3763 74.8715C53.4085 74.8842 53.4366 74.9012 53.4688 74.9139C53.5009 74.9267 53.5331 74.9437 53.5693 74.9564C53.6376 74.9819 53.71 75.0073 53.7864 75.0285C53.8185 75.037 53.8547 75.0498 53.8869 75.054C53.9351 75.0668 53.9834 75.0752 54.0356 75.088C54.0678 75.0965 54.0959 75.1007 54.1281 75.105C54.1643 75.1092 54.1964 75.1134 54.2326 75.1177C54.2648 75.1219 54.2929 75.1262 54.3251 75.1262C54.3613 75.1262 54.3934 75.1347 54.4336 75.1347C54.5904 75.1432 54.7633 75.1432 54.9442 75.1304C55.0487 75.1219 55.1573 75.1092 55.2739 75.0922C55.3744 75.0752 55.4709 75.054 55.5633 75.0328C55.6116 75.0243 55.6558 75.0073 55.7 74.9946C55.8407 74.9521 55.9734 74.9055 56.102 74.846C56.1985 74.8036 56.2869 74.7527 56.3754 74.7017C56.4437 74.6593 56.5081 74.6168 56.5684 74.5744C56.6206 74.5362 56.6769 74.4937 56.7252 74.4555C56.7734 74.4173 56.8176 74.3791 56.8578 74.3367C56.8819 74.3155 56.9061 74.2942 56.9302 74.2688C56.9623 74.239 56.9905 74.2093 57.0186 74.1754C57.0428 74.1499 57.0669 74.1244 57.087 74.0947C57.2438 73.9122 57.3684 73.7254 57.4608 73.5557C57.4769 73.5217 57.497 73.4877 57.5131 73.458C57.5292 73.4283 57.5453 73.3986 57.5573 73.3689C57.5895 73.3095 57.6096 73.25 57.6337 73.1991C57.6498 73.1567 57.6659 73.1142 57.682 73.0803C57.7222 72.9656 57.7423 72.8892 57.7463 72.8723C57.8227 72.5412 58.1362 72.3417 58.4458 72.4223C58.4981 72.4351 58.5503 72.4563 58.5986 72.486C58.6147 72.4945 58.6307 72.503 58.6468 72.5157C58.6669 72.5284 58.687 72.5497 58.7071 72.5667C58.7312 72.5879 58.7554 72.6133 58.7714 72.6388C58.8116 72.6897 58.8398 72.7492 58.8639 72.8128C58.892 72.8977 58.9041 72.9911 58.892 73.0845H58.8639Z" fill="#FF006B"/>
<path d="M89.317 71.8111C89.313 71.7687 89.3089 71.722 89.3089 71.6753C89.2888 71.4036 89.2687 71.1362 89.2406 70.8646C89.2366 70.8264 89.2326 70.7881 89.2285 70.7499C89.1964 70.474 89.1602 70.1939 89.116 69.918C89.116 69.9095 89.116 69.901 89.1119 69.8925C89.1119 69.884 89.1079 69.8713 89.1079 69.8586C89.0396 69.4426 88.9632 69.0309 88.8788 68.6276C88.8788 68.6149 88.8707 68.5979 88.8707 68.5852C88.7903 68.2032 88.7059 67.8296 88.6134 67.4603C88.6054 67.4391 88.6014 67.4179 88.5974 67.3924C86.4184 66.2761 83.6445 65.0366 81.6987 64.8287C78.0202 64.4339 74.3538 65.13 73.7467 68.6786C73.0552 72.7364 76.8423 74.4937 80.4846 74.7739C83.1902 74.9819 86.6074 76.0345 88.8305 77.1891C88.8305 77.1764 88.8345 77.1679 88.8386 77.1551C88.9069 76.8792 88.9672 76.5991 89.0235 76.3189C89.0235 76.3105 89.0275 76.2977 89.0315 76.285C89.1441 75.7035 89.2285 75.1219 89.2808 74.5319C89.2808 74.5234 89.2808 74.5107 89.2808 74.5022C89.3049 74.2221 89.325 73.9419 89.3371 73.6618C89.3371 73.6278 89.3411 73.5939 89.3411 73.5642C89.3532 73.2925 89.3572 73.0251 89.3532 72.7534V72.6218C89.3491 72.3587 89.3411 72.087 89.325 71.8196L89.317 71.8111ZM83.9299 68.8101C83.9259 68.8399 83.9219 68.8696 83.9098 68.8993C83.8776 69.0096 83.1218 71.5649 80.3077 71.8238C80.1348 71.8408 79.97 71.8493 79.8092 71.8493C79.5036 71.8493 79.2262 71.8238 78.969 71.7729C78.8403 71.7474 78.7197 71.722 78.6031 71.688C78.4825 71.6541 78.374 71.6159 78.2694 71.5734C78.2172 71.5564 78.1649 71.5352 78.1167 71.5097C78.0644 71.4885 78.0162 71.4673 77.9719 71.4418C77.9398 71.4291 77.9116 71.4121 77.8795 71.3951C77.8473 71.3824 77.8232 71.3612 77.7951 71.3484C77.7388 71.3145 77.6825 71.2848 77.6342 71.2508C77.6021 71.2296 77.5699 71.2084 77.5378 71.1872C77.4935 71.1574 77.4493 71.1277 77.4091 71.0938C77.3247 71.0301 77.2483 70.9664 77.1759 70.8985C77.1398 70.8646 77.1036 70.8348 77.0714 70.8009C77.0352 70.7669 77.0031 70.733 76.9709 70.699C76.9026 70.6269 76.8382 70.5547 76.786 70.4868C76.7498 70.4358 76.7136 70.3892 76.6855 70.351C76.5609 70.1769 76.4965 70.0496 76.4885 70.0326C76.4684 69.9902 76.4523 69.9435 76.4402 69.8968C76.4242 69.8289 76.4201 69.7609 76.4282 69.6973C76.4282 69.676 76.4322 69.6548 76.4362 69.6378C76.4402 69.6166 76.4443 69.5954 76.4483 69.5784C76.4603 69.5402 76.4764 69.502 76.4965 69.4638C76.5046 69.4426 76.5166 69.4256 76.5287 69.4086C76.5528 69.3747 76.5769 69.3407 76.6091 69.311C76.6493 69.2728 76.6935 69.2388 76.7458 69.2134C76.786 69.1922 76.8302 69.1752 76.8744 69.1624C76.9186 69.1497 76.9629 69.1455 77.0071 69.1455C77.0393 69.1455 77.0754 69.1455 77.1076 69.154C77.1398 69.1582 77.1719 69.1667 77.2041 69.1794C77.2362 69.1879 77.2684 69.2049 77.2966 69.2219C77.3247 69.2389 77.3488 69.2558 77.3729 69.2771H77.377C77.3971 69.3025 77.4172 69.3195 77.4373 69.345C77.4574 69.3662 77.4734 69.3874 77.4895 69.4129C77.5016 69.4341 77.5136 69.4553 77.5257 69.4765C77.5619 69.5445 78.2333 70.7881 80.2192 70.6056C80.2956 70.5971 80.372 70.5887 80.4444 70.5759C80.4966 70.5674 80.5489 70.5589 80.6012 70.5462C80.6454 70.5377 80.6896 70.5292 80.7338 70.5165C80.7499 70.5165 80.766 70.508 80.778 70.5038C80.8142 70.4953 80.8504 70.4825 80.8866 70.4698C80.9389 70.4571 80.9911 70.4358 81.0434 70.4146C81.0595 70.4104 81.0755 70.4061 81.0916 70.3976C81.16 70.3722 81.2283 70.3425 81.2886 70.3085C81.3529 70.2745 81.4132 70.2448 81.4735 70.2109C81.5097 70.1897 81.5459 70.1684 81.5781 70.143C81.6263 70.1175 81.6705 70.0878 81.7107 70.0538C81.7469 70.0284 81.7871 69.9986 81.8193 69.9689C81.8876 69.9137 81.956 69.8543 82.0163 69.7991C82.0806 69.7397 82.1369 69.6803 82.1891 69.6209C82.2414 69.5572 82.2897 69.4978 82.3339 69.4383C82.3821 69.3789 82.4223 69.3195 82.4585 69.2601C82.4786 69.2346 82.4947 69.2049 82.5108 69.1752C82.5268 69.1455 82.5429 69.12 82.559 69.0903C82.6997 68.8483 82.7721 68.6488 82.7962 68.5724C82.8042 68.5555 82.8083 68.5427 82.8083 68.5385C82.8163 68.5045 82.8284 68.4748 82.8444 68.4409C82.8726 68.3814 82.9088 68.3305 82.953 68.2838C82.9771 68.2626 83.0012 68.2414 83.0213 68.2201C83.1661 68.114 83.351 68.0716 83.5319 68.131C83.5641 68.1395 83.5922 68.1522 83.6203 68.1692C83.6485 68.1819 83.6766 68.2032 83.7007 68.2201C83.7249 68.2414 83.749 68.2626 83.7691 68.2838C83.7731 68.288 83.7771 68.2923 83.7811 68.2965C83.7932 68.3093 83.8093 68.3262 83.8173 68.3432C83.8374 68.3687 83.8535 68.3942 83.8656 68.4239C83.8736 68.4366 83.8776 68.4451 83.8816 68.4578C83.8937 68.4791 83.9018 68.5045 83.9098 68.5257C83.9379 68.6149 83.946 68.7083 83.9339 68.8016L83.9299 68.8101Z" fill="#FF006B"/>
<path d="M69.0591 77.5838C71.1215 77.2825 72.4321 75.3172 72.2592 73.9759C72.0864 72.6346 70.1526 72.3714 68.0862 72.6728C66.0239 72.9741 64.4279 74.2518 64.6047 75.5931C64.7776 76.9344 66.9968 77.8852 69.0591 77.5838Z" fill="#2C3A42"/>
<path d="M75.0412 76.5651C74.7638 76.3953 74.406 76.493 74.2452 76.7859C74.2332 76.8071 72.9427 79.0695 69.4089 79.842C66.1686 80.5509 63.3625 79.0992 63.3344 79.0865C63.0489 78.9337 62.6992 79.0567 62.5545 79.3581C62.4097 79.6595 62.5263 80.0288 62.8118 80.1816C62.9163 80.2368 64.8902 81.2682 67.5476 81.2682C68.2109 81.2682 68.9144 81.2045 69.6421 81.0432C73.6744 80.1604 75.186 77.5159 75.2463 77.4056C75.4071 77.1127 75.3146 76.7349 75.0372 76.5651H75.0412Z" fill="#2C3A42"/>
<path d="M83.5239 68.1353C83.2183 68.0376 82.8927 68.2201 82.7962 68.5385C82.7721 68.6149 82.2173 70.4104 80.2072 70.5929C78.2212 70.7754 77.5458 69.5317 77.5137 69.4638C77.3649 69.1667 77.0192 69.0479 76.7337 69.2007C76.4483 69.3535 76.3317 69.7228 76.4765 70.0241C76.5126 70.1048 77.377 71.8408 79.8052 71.8408C79.966 71.8408 80.1308 71.8323 80.3037 71.8154C83.1138 71.5564 83.8736 69.0012 83.9018 68.8908C83.9942 68.5682 83.8214 68.2286 83.5158 68.131L83.5239 68.1353Z" fill="white"/>
<path d="M54.6145 76.3741C54.8678 76.3741 55.1412 76.3529 55.4306 76.3062C58.2207 75.8647 58.8277 73.267 58.8518 73.1567C58.9242 72.8298 58.7312 72.4987 58.4217 72.4223C58.1121 72.3459 57.7985 72.5454 57.7222 72.8723C57.7021 72.9487 57.2558 74.7781 55.2578 75.0922C53.2839 75.4021 52.5401 74.2051 52.5039 74.1414C52.3391 73.8528 51.9853 73.7594 51.712 73.9292C51.4346 74.099 51.3421 74.4767 51.5069 74.7696C51.5471 74.8418 52.4276 76.3741 54.6186 76.3741H54.6145Z" fill="white"/>
<mask id="mask5_4_4" style="mask-type:luminance" maskUnits="userSpaceOnUse" x="39" y="42" width="111" height="100">
<path d="M149.938 82.8812V82.8727C149.934 82.393 149.922 81.9219 149.906 81.4422C149.894 81.1196 149.881 80.7971 149.869 80.4787C149.865 80.4193 149.861 80.3599 149.857 80.3004C149.845 80.1221 149.833 79.9439 149.813 79.7614C149.813 79.7486 149.813 79.7316 149.809 79.7189C149.769 79.3496 149.709 78.9803 149.628 78.6195C149.628 78.6111 149.624 78.6026 149.62 78.5941C149.612 78.5559 149.6 78.5134 149.592 78.4752C149.512 78.1441 149.419 77.8215 149.303 77.5032C148.997 76.6628 148.595 75.9115 148.109 75.262C148.105 75.2535 148.101 75.2493 148.096 75.2408C147.936 75.0243 147.763 74.8206 147.582 74.6253C147.57 74.6126 147.558 74.5999 147.546 74.5829C147.385 74.4131 147.212 74.2603 147.035 74.1075C146.983 74.065 146.935 74.0226 146.878 73.9801C146.726 73.8613 146.569 73.7467 146.408 73.6406C146.356 73.6066 146.307 73.5769 146.255 73.5429C145.942 73.3519 145.616 73.1906 145.27 73.059C145.15 73.0166 145.025 72.9699 144.9 72.9317C144.165 72.7067 143.489 72.6091 142.87 72.6091C137.495 72.6091 136.341 80.3259 135.22 83.3099C134.46 85.3261 133.519 86.8414 132.426 87.9451C132.426 87.9875 132.426 88.0257 132.426 88.0681C132.426 89.3458 132.184 91.137 131.505 93.6584C130.677 96.7357 128.743 99.533 127.674 100.917C127.698 103.349 127.087 105.594 126.444 106.991C125.443 109.164 117.909 121.58 106.262 128.163C94.8528 134.611 84.8345 135.659 79.5198 135.663C77.1157 135.663 75.6764 135.447 75.4995 135.422L73.8352 135.158L73.8472 135.146C75.9659 134.823 77.4373 134.908 79.1539 134.696C83.8133 134.11 93.3573 132.675 105.165 126.003C116.076 119.835 123.332 108.133 124.353 105.925C124.852 104.843 125.35 103.014 125.35 101.057C125.35 100.73 125.338 100.403 125.306 100.068C125.169 98.5907 124.719 97.105 123.734 95.8571C123.561 95.6406 123.372 95.4284 123.163 95.2246C123.159 95.2204 123.155 95.2162 123.151 95.2119C122.102 94.1847 120.848 93.7051 119.577 93.565C119.03 93.5056 118.48 93.5056 117.941 93.5565C117.917 93.5565 117.897 93.5607 117.877 93.5607C117.724 93.5777 117.571 93.5947 117.414 93.6202C117.394 93.6202 117.374 93.6244 117.358 93.6287C116.654 93.739 115.987 93.9173 115.38 94.138C115.376 94.138 115.368 94.1423 115.364 94.1423C115.095 94.2399 114.841 94.3418 114.604 94.4479C114.596 94.4521 114.588 94.4564 114.58 94.4606C114.475 94.5073 114.375 94.5582 114.274 94.6049C114.262 94.6134 114.242 94.6177 114.23 94.6261C114.017 94.7323 113.824 94.8384 113.647 94.9445C113.635 94.953 113.619 94.9615 113.607 94.97C113.539 95.0124 113.47 95.0549 113.406 95.0973C113.398 95.1015 113.394 95.1058 113.386 95.11C113.374 95.1185 113.366 95.1228 113.354 95.1313C113.314 95.1567 113.281 95.1822 113.245 95.2077C113.209 95.2331 113.173 95.2586 113.141 95.2841C113.109 95.3095 113.072 95.335 113.032 95.3647C113 95.3902 112.964 95.4157 112.924 95.4454C112.92 95.4454 112.916 95.4496 112.912 95.4539C112.843 95.5048 112.759 95.5557 112.674 95.6151C112.634 95.6406 112.594 95.6703 112.55 95.7C112.469 95.751 112.389 95.8062 112.297 95.8656C112.26 95.8868 112.224 95.9123 112.188 95.9377C112.152 95.9632 112.112 95.9844 112.075 96.0099C112.011 96.0481 111.951 96.0906 111.886 96.1288C111.83 96.167 111.77 96.2009 111.71 96.2391C111.661 96.2688 111.609 96.2985 111.557 96.3325C111.48 96.3792 111.404 96.4301 111.324 96.4768C111.203 96.549 111.078 96.6254 110.95 96.7018C110.564 96.931 110.138 97.1772 109.679 97.4361C109.579 97.4955 109.474 97.555 109.366 97.6144C109.366 97.6144 109.362 97.6186 109.358 97.6186C109.245 97.6823 109.125 97.7502 109.008 97.8139C108.907 97.8648 108.807 97.92 108.706 97.9794C108.522 98.0813 108.329 98.1874 108.136 98.2893C108.023 98.3487 107.91 98.4081 107.798 98.4718C107.677 98.5355 107.553 98.6034 107.428 98.6671C107.38 98.6925 107.332 98.718 107.283 98.7477C107.135 98.8241 106.986 98.9005 106.833 98.9812C106.564 99.1212 106.29 99.2613 106.013 99.4014C105.949 99.4353 105.88 99.4693 105.812 99.5033C105.631 99.5966 105.446 99.6858 105.257 99.7792C105.116 99.8513 104.976 99.9192 104.835 99.9871C104.554 100.123 104.268 100.263 103.979 100.399C103.826 100.471 103.673 100.543 103.52 100.615C103.384 100.679 103.251 100.743 103.114 100.806C103.086 100.819 103.058 100.832 103.03 100.845C98.9374 102.738 94.1533 104.567 89.711 105.391C86.2938 106.023 83.2224 105.904 80.6615 105.471C76.195 104.716 72.2633 101.952 69.8592 97.9073L73.8955 100.556C73.9518 100.59 80.356 104.627 89.3049 102.971C89.4215 102.95 89.5381 102.924 89.6547 102.899C92.0668 102.424 94.5996 101.643 97.0559 100.713L91.1181 100.543C90.9613 100.543 90.8005 100.535 90.6397 100.522C90.3221 100.501 90.0004 100.471 89.6869 100.437C89.5261 100.416 89.3693 100.395 89.2085 100.369C88.5773 100.272 87.9501 100.14 87.331 99.9659L78.3056 97.4361C77.8192 97.3003 77.4735 96.8334 77.4735 96.2985V95.9335C77.4735 95.8741 77.4775 95.8146 77.4855 95.7552C77.5016 95.6364 77.5338 95.526 77.582 95.4241C77.6061 95.3732 77.6303 95.3223 77.6624 95.2756C77.7026 95.2119 77.7468 95.1567 77.7991 95.1015C77.8996 94.9954 78.0202 94.9063 78.1529 94.8469C78.2896 94.7874 78.4343 94.7535 78.5871 94.7535H96.7222L97.482 91.9478L98.2137 89.2482C97.3253 89.6259 96.4448 89.9103 95.5684 90.0844C94.9212 90.2117 94.2739 90.2839 93.6347 90.2839C92.6015 90.2839 91.5764 90.1141 90.5512 89.7405C89.1843 89.2482 88.5532 87.5928 89.2125 86.2472C90.9814 82.6223 91.9784 78.5262 91.9784 74.1839C91.9784 63.5637 86.0164 54.391 77.381 50.0912C77.0674 49.9342 76.7498 49.7856 76.4322 49.6413C75.9619 49.429 75.4794 49.238 74.989 49.0555C74.5267 48.8815 74.0563 48.7202 73.5779 48.5716C73.2723 48.4782 72.9628 48.3933 72.6492 48.3084C72.5809 48.2915 72.5125 48.2702 72.4442 48.2533C72.2552 48.2023 72.0623 48.1641 71.8693 48.1174C71.7125 48.0835 71.5597 48.0453 71.4029 48.0113C71.1738 47.9646 70.9406 47.9264 70.7115 47.884C70.5909 47.8628 70.4703 47.833 70.3497 47.8161C69.9919 47.7566 69.6381 47.71 69.2803 47.6633C69.023 47.6335 68.9064 47.3152 69.0793 47.1157C69.4089 46.7379 69.7305 46.3517 70.028 45.9696C70.0803 45.9017 70.1285 45.8381 70.1808 45.7744C70.3818 45.5155 70.5627 45.265 70.7316 45.0188C70.808 44.9042 70.8843 44.7939 70.9487 44.6835C71.0572 44.5137 71.1457 44.3524 71.218 44.2039C71.222 44.1954 71.2261 44.1869 71.2301 44.1784C71.2341 44.1699 71.2381 44.1572 71.2421 44.1444C71.3467 43.9237 71.411 43.7285 71.4231 43.5714C71.4271 43.5162 71.423 43.4653 71.415 43.4186C71.3949 43.3295 71.3507 43.2573 71.2703 43.2064C71.0532 43.0705 70.7838 43.0111 70.4783 43.0111C68.3556 43.0111 64.456 45.9739 62.856 47.2685C62.8319 47.2897 62.8037 47.2982 62.7796 47.2982C62.6831 47.2982 62.6067 47.1836 62.6711 47.0817C63.652 45.5749 65.5254 42.3702 63.9495 42.1028C63.9213 42.0985 63.8932 42.0943 63.861 42.0943C61.9313 42.0943 52.9663 50.8255 49.9873 53.7756C46.144 57.1798 43.2253 61.7767 41.7338 67.0826C41.3961 68.2923 41.0906 69.519 40.8252 70.7627C40.8252 70.7712 40.8252 70.7754 40.8252 70.7797C39.9569 74.8503 39.4986 79.0822 39.4986 83.4287C39.4986 115.391 64.2148 141.3 94.7081 141.3C125.201 141.3 148.37 116.974 149.845 86.3958C149.894 85.4152 149.918 84.422 149.918 83.4287C149.918 83.2505 149.918 83.0722 149.918 82.8897L149.938 82.8812ZM69.0873 93.4504C68.8582 93.4843 68.625 93.5098 68.3958 93.5353C68.2792 93.548 68.1627 93.5607 68.0501 93.5692C67.7888 93.5947 67.5315 93.6159 67.2742 93.6329C67.1978 93.6371 67.1214 93.6456 67.045 93.6499C66.7114 93.6711 66.3817 93.6838 66.048 93.6881C65.9716 93.6881 65.9033 93.6881 65.8309 93.6881C65.5696 93.6881 65.3123 93.6881 65.055 93.6881C64.9545 93.6881 64.854 93.6881 64.7535 93.6796C64.5123 93.6753 64.2711 93.6626 64.0339 93.6499C63.9455 93.6456 63.853 93.6414 63.7646 93.6329C63.1213 93.5904 62.4861 93.5183 61.863 93.4249C61.7705 93.4122 61.6821 93.3994 61.5896 93.3825C61.3645 93.3443 61.1434 93.3061 60.9223 93.2636C60.8258 93.2424 60.7253 93.2254 60.6288 93.2042C60.3876 93.1533 60.1544 93.1023 59.9212 93.0471C59.8529 93.0302 59.7845 93.0132 59.7202 93.0004C59.4267 92.9283 59.1333 92.8476 58.8438 92.7585C58.7634 92.7373 58.687 92.7118 58.6106 92.6863C58.3976 92.6184 58.1885 92.5548 57.9795 92.4826C57.879 92.4486 57.7785 92.4104 57.678 92.3765C57.489 92.3086 57.296 92.2364 57.1111 92.1642C57.0146 92.126 56.9222 92.0921 56.8257 92.0496C56.5644 91.9435 56.3071 91.8332 56.0498 91.7143C55.9935 91.6888 55.9412 91.6634 55.8849 91.6337C55.6719 91.5318 55.4588 91.4257 55.2457 91.3196C55.1452 91.2686 55.0487 91.2134 54.9482 91.1583C54.7874 91.0691 54.6306 90.98 54.4698 90.8909C54.3693 90.8314 54.2688 90.772 54.1643 90.7126C53.9995 90.6149 53.8346 90.5131 53.6778 90.407C53.5974 90.3518 53.509 90.3008 53.4286 90.2457C53.2035 90.0929 52.9783 89.9358 52.7612 89.7745C52.6688 89.7108 52.5843 89.6429 52.4959 89.575C52.3552 89.4689 52.2185 89.3585 52.0778 89.2482C51.9813 89.1675 51.8848 89.0869 51.7883 89.0062C51.6597 88.8959 51.5351 88.7855 51.4104 88.6709C51.318 88.5902 51.2295 88.5096 51.1411 88.4289C50.9722 88.2677 50.8074 88.1064 50.6426 87.9408C50.5501 87.8474 50.4617 87.754 50.3732 87.6564C50.2406 87.5163 50.1119 87.372 49.9793 87.2277C49.8988 87.1301 49.8184 87.0367 49.734 86.9391C49.6295 86.8117 49.5209 86.6844 49.4204 86.5528C49.34 86.4552 49.2637 86.3533 49.1873 86.2514C49.0747 86.1071 48.9702 85.9628 48.8657 85.81C48.8013 85.7209 48.737 85.636 48.6767 85.5468C48.532 85.3346 48.3913 85.1181 48.2546 84.9016C48.2465 84.8889 48.2385 84.8762 48.2305 84.8592C48.1501 84.7318 48.0777 84.6045 48.0053 84.4772C47.9209 84.3329 47.8365 84.1885 47.7561 84.0442C47.6877 83.9211 47.6274 83.798 47.5591 83.6707C47.4787 83.5136 47.3983 83.3566 47.3219 83.1953C47.2616 83.0679 47.2053 82.9449 47.149 82.8175C47.0726 82.652 47.0043 82.4822 46.9319 82.3166C46.8797 82.1851 46.8234 82.0577 46.7751 81.9261C46.7108 81.7563 46.6465 81.5781 46.5822 81.404C46.5339 81.2725 46.4897 81.1409 46.4455 81.005C46.3852 80.8268 46.3289 80.64 46.2766 80.4532C46.2364 80.3216 46.1962 80.1901 46.156 80.0542C46.1038 79.8547 46.0555 79.651 46.0033 79.4473C45.9711 79.3199 45.9389 79.2011 45.9108 79.0737C45.8465 78.7851 45.7862 78.488 45.7379 78.1908C45.7299 78.1484 45.7218 78.1102 45.7138 78.072C45.6776 77.864 45.6455 77.6603 45.6173 77.4565C45.5289 76.841 45.4605 76.2298 45.4163 75.6228C45.4163 75.6186 45.4163 75.6143 45.4163 75.6101C45.4083 75.504 45.4043 75.3979 45.3962 75.2917C45.3882 75.1474 45.3801 74.9989 45.3721 74.8545C45.3681 74.7484 45.3641 74.6423 45.36 74.5362C45.36 74.4513 45.36 74.3706 45.356 74.29C45.356 74.1881 45.356 74.082 45.356 73.9801V73.7382C45.356 73.6363 45.356 73.5302 45.36 73.4283C45.36 73.3477 45.3641 73.2713 45.3681 73.1906C45.3681 73.0845 45.3761 72.9784 45.3801 72.8723C45.3801 72.7959 45.3882 72.7237 45.3922 72.6473C45.4002 72.5327 45.4083 72.4223 45.4163 72.3077C45.4203 72.2398 45.4244 72.1762 45.4324 72.1082C45.4445 71.9724 45.4565 71.8366 45.4726 71.7008C45.4766 71.6583 45.4806 71.6159 45.4847 71.5734C45.5048 71.3951 45.5289 71.2169 45.557 71.0386C45.561 71.0046 45.5651 70.9792 45.5691 70.9452C45.5932 70.8009 45.6173 70.6566 45.6414 70.5122C45.6535 70.4571 45.6615 70.4061 45.6736 70.351C45.6977 70.2321 45.7219 70.109 45.746 69.9902C45.758 69.9307 45.7701 69.8713 45.7862 69.8119C45.8103 69.6973 45.8384 69.5869 45.8666 69.4723C45.8786 69.4129 45.8987 69.3535 45.9108 69.294C45.943 69.1794 45.9751 69.0648 46.0073 68.9545C46.0193 68.8993 46.0394 68.8399 46.0555 68.7889C46.0917 68.6658 46.1319 68.5427 46.1681 68.4239C46.1842 68.3772 46.1962 68.3347 46.2123 68.2881C46.2646 68.1268 46.3209 67.9655 46.3812 67.8084C46.3812 67.8084 46.3812 67.8042 46.3812 67.7999C46.4455 67.6301 46.5098 67.4646 46.5822 67.2948C46.5902 67.2736 46.5983 67.2566 46.6063 67.2396C46.6666 67.0953 46.7269 66.9552 46.7912 66.8152C46.8113 66.7727 46.8314 66.7345 46.8475 66.6921C46.9038 66.5732 46.9601 66.4544 47.0164 66.3397C47.0405 66.2931 47.0646 66.2464 47.0887 66.1997C47.145 66.0893 47.2053 65.979 47.2656 65.8686L47.342 65.7285C47.4063 65.6182 47.4706 65.5036 47.539 65.3932C47.5631 65.355 47.5872 65.3125 47.6154 65.2743C47.6918 65.147 47.7722 65.0282 47.8526 64.9051C47.8686 64.8796 47.8847 64.8541 47.9008 64.8329C48.1018 64.5315 48.3189 64.2344 48.5481 63.9458C48.5561 63.9373 48.5601 63.9288 48.5682 63.9203C48.6727 63.7887 48.7812 63.6571 48.8938 63.5255C48.9179 63.4958 48.942 63.4704 48.9662 63.4407C49.0626 63.3303 49.1591 63.2199 49.2596 63.1096L49.3521 63.0119C49.4486 62.9058 49.5531 62.804 49.6536 62.7021C49.6858 62.6724 49.7139 62.6427 49.7461 62.6087C49.8546 62.5026 49.9632 62.3965 50.0798 62.2946C50.1039 62.2691 50.132 62.2437 50.1602 62.2224C50.2928 62.0993 50.4295 61.9805 50.5702 61.8616C50.5742 61.8574 50.5823 61.8532 50.5903 61.8489C50.7431 61.7173 50.8959 61.5942 51.0567 61.4669C57.2558 56.645 62.2208 60.758 65.8028 60.0874C66.0078 60.0492 66.2129 59.994 66.4139 59.9346C68.5808 59.2597 70.4059 57.3156 72.7015 56.2162C73.8271 55.6772 75.0654 55.3461 76.5167 55.4692C77.18 55.5286 77.8916 55.6814 78.6554 55.9573C78.6916 55.9701 78.7278 55.9828 78.764 55.9955C78.9167 56.0507 79.0655 56.1101 79.2142 56.1653C79.2785 56.1908 79.3388 56.2162 79.3991 56.2417C79.5198 56.2926 79.6404 56.3393 79.761 56.3903C79.8253 56.4157 79.8896 56.4455 79.9539 56.4752C80.0665 56.5261 80.1791 56.577 80.2916 56.628C80.356 56.6577 80.4163 56.6874 80.4806 56.7171C80.5931 56.7723 80.7017 56.8232 80.8102 56.8827C80.8665 56.9124 80.9268 56.9421 80.9831 56.9718C81.0957 57.0312 81.2082 57.0906 81.3168 57.1543C81.365 57.184 81.4173 57.2095 81.4696 57.2392C81.5942 57.3114 81.7148 57.3835 81.8354 57.4557C81.8676 57.4769 81.9037 57.4939 81.9359 57.5151C82.2455 57.7104 82.5389 57.9099 82.8284 58.1221C82.8646 58.1476 82.9007 58.1773 82.9369 58.2027C83.0374 58.2791 83.142 58.3556 83.2425 58.4362C83.2907 58.4744 83.3349 58.5126 83.3832 58.5508C83.4676 58.623 83.556 58.6951 83.6405 58.7673C83.6927 58.8097 83.741 58.8522 83.7892 58.8989C83.8696 58.9668 83.946 59.0389 84.0264 59.1111C84.0746 59.1535 84.1229 59.2002 84.1711 59.2469C84.2475 59.3191 84.3239 59.3912 84.3963 59.4634C84.4445 59.5101 84.4887 59.5568 84.537 59.6077C84.6134 59.6841 84.6897 59.7648 84.7621 59.8454C84.8023 59.8921 84.8425 59.9346 84.8867 59.9813C84.9872 60.0959 85.0918 60.2105 85.1923 60.3293C85.2365 60.3845 85.2767 60.4354 85.3209 60.4906C85.3893 60.5713 85.4576 60.6562 85.5219 60.7411C85.5702 60.8047 85.6184 60.8684 85.6667 60.9321C85.7189 61 85.7672 61.0679 85.8194 61.14C85.8717 61.208 85.9199 61.2844 85.9682 61.3523C86.0164 61.4159 86.0606 61.4839 86.1049 61.5475C86.1571 61.6239 86.2054 61.7003 86.2576 61.7767C86.2978 61.8404 86.338 61.9041 86.3782 61.9678C86.4305 62.0484 86.4787 62.1291 86.527 62.2139C86.5632 62.2734 86.5993 62.3328 86.6355 62.3922C86.6838 62.4814 86.736 62.5705 86.7843 62.6554C86.8124 62.7063 86.8406 62.7573 86.8687 62.8082C87.0576 63.1647 87.2386 63.5298 87.4074 63.9076C87.4195 63.933 87.4355 63.9627 87.4476 63.9925C87.4958 64.1028 87.5441 64.2174 87.5883 64.3278C87.6084 64.3787 87.6285 64.4254 87.6486 64.4763C87.6928 64.5825 87.7371 64.6928 87.7773 64.8074C87.7974 64.8626 87.8175 64.9135 87.8416 64.9687C87.8818 65.0791 87.922 65.1895 87.9622 65.3041C87.9823 65.3592 87.9984 65.4102 88.0185 65.4696C88.0587 65.5842 88.0949 65.6988 88.1351 65.8134C88.1511 65.8644 88.1672 65.9195 88.1833 65.9705C88.2235 66.0893 88.2597 66.2124 88.2959 66.3355C88.3079 66.3737 88.316 66.4119 88.328 66.4501C88.4165 66.7515 88.5009 67.0529 88.5773 67.367C88.5813 67.3882 88.5853 67.4094 88.5934 67.4349C88.6858 67.8042 88.7703 68.1777 88.8507 68.5597C88.8507 68.5724 88.8587 68.5894 88.8587 68.6022C88.9431 69.0054 89.0155 69.4129 89.0879 69.8331C89.0879 69.8458 89.0879 69.8543 89.0919 69.8671C89.0919 69.8756 89.0919 69.8883 89.0959 69.8925C89.1401 70.1684 89.1763 70.4486 89.2085 70.7245C89.2125 70.7627 89.2165 70.7966 89.2205 70.8391C89.2527 71.1107 89.2728 71.3824 89.2889 71.6498C89.2889 71.6965 89.2929 71.7432 89.2969 71.7856C89.309 72.0573 89.321 72.3247 89.325 72.5879V72.7195C89.325 72.9911 89.325 73.2628 89.313 73.5302C89.313 73.5642 89.313 73.5981 89.309 73.6278C89.2969 73.9122 89.2768 74.1881 89.2527 74.4683C89.2527 74.4768 89.2527 74.4895 89.2527 74.498C89.1964 75.088 89.112 75.6738 89.0034 76.251C89.0034 76.2595 88.9994 76.2722 88.9954 76.285C88.9431 76.5694 88.8788 76.8453 88.8105 77.1212C88.8105 77.1339 88.8064 77.1424 88.8024 77.1551C88.8024 77.1636 88.7984 77.1764 88.7944 77.1891C88.7381 77.4268 88.6738 77.656 88.6094 77.8895C88.6094 77.8895 88.6094 77.8937 88.6054 77.898C88.5411 78.1272 88.4687 78.3521 88.3924 78.5771C88.3843 78.5983 88.3803 78.6195 88.3723 78.6408C88.2959 78.87 88.2155 79.0949 88.131 79.3199C88.127 79.3369 88.119 79.3539 88.1109 79.3709C88.0305 79.5873 87.9421 79.7996 87.8536 80.016C87.8456 80.0288 87.8416 80.0457 87.8335 80.0627C87.7371 80.2792 87.6406 80.4957 87.5401 80.7122C87.528 80.7376 87.516 80.7631 87.5039 80.7886C87.4034 80.9966 87.2989 81.2088 87.1903 81.4168C87.1903 81.421 87.1863 81.4253 87.1823 81.4295C87.0697 81.6417 86.9531 81.854 86.8365 82.062C86.8164 82.0917 86.8003 82.1214 86.7843 82.1469C86.5471 82.5586 86.2978 82.9661 86.0285 83.3608C86.0084 83.3948 85.9883 83.4203 85.9682 83.45C85.6988 83.8447 85.4174 84.231 85.1199 84.6045C85.0998 84.6342 85.0757 84.6639 85.0516 84.6936C84.9028 84.8804 84.75 85.0672 84.5933 85.2497C84.5852 85.2582 84.5812 85.2667 84.5732 85.2752C84.4204 85.4534 84.2676 85.6275 84.1108 85.7973C84.0867 85.8227 84.0626 85.8482 84.0425 85.8737C83.8817 86.0519 83.7128 86.226 83.544 86.4C83.5239 86.417 83.5078 86.434 83.4917 86.4509C83.3309 86.6122 83.1661 86.7735 83.0013 86.9306C82.9812 86.9476 82.9611 86.9688 82.945 86.9858C82.7681 87.1513 82.5872 87.3168 82.4063 87.4781C82.3821 87.4994 82.354 87.5206 82.3299 87.5418C82.153 87.6946 81.9721 87.8474 81.7952 88.0002C81.7831 88.0087 81.7711 88.0215 81.759 88.0299C81.5701 88.187 81.3771 88.3398 81.1761 88.4926C81.1439 88.5181 81.1198 88.5393 81.0876 88.5605C80.6937 88.8619 80.2836 89.1505 79.8655 89.4307C79.8333 89.4519 79.8012 89.4731 79.769 89.4901C79.3469 89.766 78.9167 90.0334 78.4745 90.2881C78.4423 90.3051 78.4102 90.3263 78.378 90.3433C78.1529 90.4706 77.9277 90.5937 77.6946 90.7126C77.6946 90.7126 77.6932 90.7126 77.6906 90.7126C77.4614 90.8314 77.2323 90.9503 77.0031 91.0606C76.9709 91.0734 76.9468 91.0861 76.9147 91.1031C76.6815 91.2177 76.4443 91.328 76.2031 91.4342C76.187 91.4384 76.1709 91.4469 76.1548 91.4554C75.9257 91.5573 75.6885 91.6549 75.4513 91.7483C75.4272 91.7568 75.4071 91.7695 75.383 91.7737C75.1377 91.8756 74.8885 91.969 74.6392 92.0581C74.6151 92.0666 74.591 92.0794 74.5628 92.0836C74.3176 92.1727 74.0764 92.2576 73.8271 92.3383C73.8151 92.3383 73.803 92.3468 73.791 92.3468C73.5337 92.4317 73.2764 92.5081 73.0151 92.5845C72.9829 92.593 72.9547 92.6057 72.9226 92.6099C72.4 92.7585 71.8733 92.8943 71.3346 93.0132C71.2984 93.0217 71.2622 93.0259 71.2261 93.0344C70.9567 93.0938 70.6874 93.149 70.418 93.1957C70.3778 93.2042 70.3376 93.2084 70.2934 93.2169C69.9999 93.2721 69.7024 93.3188 69.4089 93.3612C69.2964 93.3782 69.1798 93.3952 69.0632 93.4079L69.0873 93.4504Z" fill="white"/>
</mask>
<g mask="url(#mask5_4_4)">
<path d="M68.1586 55.3631L45.356 55.7748V55.3631H68.1586Z" fill="#96EA00"/>
<path d="M89.3492 56.1908L45.356 56.9888V55.7748L68.1586 55.3631H89.3492V56.1908Z" fill="#96E900"/>
<path d="M89.3492 57.4005L45.356 58.1985V56.9888L89.3492 56.1908V57.4005Z" fill="#96E800"/>
<path d="M89.3492 58.6145L45.356 59.4125V58.1985L89.3492 57.4005V58.6145Z" fill="#95E700"/>
<path d="M89.3492 59.8242L45.356 60.6222V59.4125L89.3492 58.6145V59.8242Z" fill="#95E600"/>
<path d="M89.3492 61.0382L45.356 61.8362V60.6222L89.3492 59.8242V61.0382Z" fill="#94E500"/>
<path d="M89.3492 62.2479L45.356 63.0459V61.8362L89.3492 61.0382V62.2479Z" fill="#94E400"/>
<path d="M89.3492 63.4576L45.356 64.2556V63.0459L89.3492 62.2479V63.4576Z" fill="#94E300"/>
<path d="M89.3492 64.6716L45.356 65.4696V64.2556L89.3492 63.4576V64.6716Z" fill="#93E200"/>
<path d="M89.3492 65.8813L45.356 66.6793V65.4696L89.3492 64.6716V65.8813Z" fill="#93E100"/>
<path d="M89.3492 67.0953L45.356 67.8933V66.6793L89.3492 65.8813V67.0953Z" fill="#93E000"/>
<path d="M89.3492 68.305L45.356 69.103V67.8933L89.3492 67.0953V68.305Z" fill="#92DF00"/>
<path d="M89.3492 69.519L45.356 70.317V69.103L89.3492 68.305V69.519Z" fill="#92DE00"/>
<path d="M89.3492 70.7287L45.356 71.5267V70.317L89.3492 69.519V70.7287Z" fill="#92DD00"/>
<path d="M89.3492 71.9427L45.356 72.7407V71.5267L89.3492 70.7287V71.9427Z" fill="#91DC00"/>
<path d="M89.3492 73.1524L45.356 73.9504V72.7407L89.3492 71.9427V73.1524Z" fill="#91DB00"/>
<path d="M89.3492 74.3664L45.356 75.1644V73.9504L89.3492 73.1524V74.3664Z" fill="#90DA00"/>
<path d="M89.3492 75.5761L45.356 76.3741V75.1644L89.3492 74.3664V75.5761Z" fill="#90D900"/>
<path d="M89.3492 76.7901L45.356 77.5881V76.3741L89.3492 75.5761V76.7901Z" fill="#90D800"/>
<path d="M89.3492 77.9998L45.356 78.7978V77.5881L89.3492 76.7901V77.9998Z" fill="#8FD700"/>
<path d="M89.3492 79.2138L45.356 80.0118V78.7978L89.3492 77.9998V79.2138Z" fill="#8FD600"/>
<path d="M89.3492 80.4235L45.356 81.2215V80.0118L89.3492 79.2138V80.4235Z" fill="#8FD500"/>
<path d="M89.3492 81.6375L45.356 82.4355V81.2215L89.3492 80.4235V81.6375Z" fill="#8ED400"/>
<path d="M89.3492 82.8472L45.356 83.6452V82.4355L89.3492 81.6375V82.8472Z" fill="#8ED300"/>
<path d="M89.3492 84.0612L45.356 84.8592V83.6452L89.3492 82.8472V84.0612Z" fill="#8DD200"/>
<path d="M89.3492 85.2709L45.356 86.0689V84.8592L89.3492 84.0612V85.2709Z" fill="#8DD100"/>
<path d="M89.3492 86.4849L45.356 87.2829V86.0689L89.3492 85.2709V86.4849Z" fill="#8DD000"/>
<path d="M89.3492 87.6946L45.356 88.4926V87.2829L89.3492 86.4849V87.6946Z" fill="#8CCF00"/>
<path d="M89.3492 88.9086L45.356 89.7066V88.4926L89.3492 87.6946V88.9086Z" fill="#8CCE00"/>
<path d="M89.3492 90.1183L45.356 90.9163V89.7066L89.3492 88.9086V90.1183Z" fill="#8CCC00"/>
<path d="M89.3492 91.3323L45.356 92.1303V90.9163L89.3492 90.1183V91.3323Z" fill="#8BCB00"/>
<path d="M89.3492 92.542L45.356 93.34V92.1303L89.3492 91.3323V92.542Z" fill="#8BCA00"/>
<path d="M45.356 93.34L89.3492 92.542V93.6966H45.356V93.34Z" fill="#8BC900"/>
<path d="M65.4049 42.0816L39.5228 42.5527V42.0816H65.4049Z" fill="#9AF500"/>
<path d="M132.221 42.0816L39.5228 43.7625V42.5527L65.4049 42.0816H132.221Z" fill="#9AF400"/>
<path d="M149.942 42.973L39.5228 44.9764V43.7625L132.221 42.0816H149.942V42.973Z" fill="#9AF300"/>
<path d="M149.942 44.1826L39.5227 46.1861V44.9764L149.942 42.9729V44.1826Z" fill="#99F200"/>
<path d="M149.942 45.3966L39.5227 47.4001V46.1861L149.942 44.1826V45.3966Z" fill="#99F100"/>
<path d="M149.942 46.6063L39.5227 48.6098V47.4001L149.942 45.3966V46.6063Z" fill="#98F000"/>
<path d="M149.942 47.8203L39.5227 49.8238V48.6098L149.942 46.6063V47.8203Z" fill="#98EF00"/>
<path d="M149.942 49.03L39.5227 51.0335V49.8238L149.942 47.8203V49.03Z" fill="#98EE00"/>
<path d="M149.942 50.244L39.5227 52.2475V51.0335L149.942 49.03V50.244Z" fill="#97ED00"/>
<path d="M149.942 51.4537L39.5227 53.4572V52.2475L149.942 50.244V51.4537Z" fill="#97EC00"/>
<path d="M149.942 52.6677L39.5227 54.6712V53.4572L149.942 51.4537V52.6677Z" fill="#97EB00"/>
<path d="M149.942 53.8774L39.5227 55.8809V54.6712L149.942 52.6677V53.8774Z" fill="#96EA00"/>
<path d="M149.942 55.0914L39.5227 57.0906V55.8809L149.942 53.8774V55.0914Z" fill="#96E900"/>
<path d="M149.942 56.3011L39.5227 58.3046V57.0906L149.942 55.0914V56.3011Z" fill="#96E800"/>
<path d="M149.942 57.5151L39.5227 59.5143V58.3046L149.942 56.3011V57.5151Z" fill="#95E700"/>
<path d="M149.942 58.7248L39.5227 60.7283V59.5143L149.942 57.5151V58.7248Z" fill="#95E600"/>
<path d="M149.942 59.9388L39.5227 61.938V60.7283L149.942 58.7248V59.9388Z" fill="#94E500"/>
<path d="M149.942 61.1485L39.5227 63.152V61.938L149.942 59.9388V61.1485Z" fill="#94E400"/>
<path d="M149.942 62.3625L39.5227 64.3617V63.152L149.942 61.1485V62.3625Z" fill="#94E300"/>
<path d="M149.942 63.5722L39.5227 65.5757V64.3617L149.942 62.3625V63.5722Z" fill="#93E200"/>
<path d="M149.942 64.7862L39.5227 66.7854V65.5757L149.942 63.5722V64.7862Z" fill="#93E100"/>
<path d="M149.942 65.9959L39.5227 67.9994V66.7854L149.942 64.7862V65.9959Z" fill="#93E000"/>
<path d="M149.942 67.2099L39.5227 69.2091V67.9994L149.942 65.9959V67.2099Z" fill="#92DF00"/>
<path d="M149.942 68.4196L39.5227 70.4231V69.2091L149.942 67.2099V68.4196Z" fill="#92DE00"/>
<path d="M149.942 69.6294L39.5227 71.6328V70.4231L149.942 68.4196V69.6294Z" fill="#92DD00"/>
<path d="M149.942 70.8433L39.5227 72.8468V71.6328L149.942 69.6293V70.8433Z" fill="#91DC00"/>
<path d="M149.942 72.0531L39.5227 74.0565V72.8468L149.942 70.8433V72.0531Z" fill="#91DB00"/>
<path d="M149.942 73.267L39.5227 75.2705V74.0565L149.942 72.0531V73.267Z" fill="#90DA00"/>
<path d="M149.942 74.4768L39.5227 76.4802V75.2705L149.942 73.267V74.4768Z" fill="#90D900"/>
<path d="M149.942 75.6907L39.5227 77.6942V76.4802L149.942 74.4767V75.6907Z" fill="#90D800"/>
<path d="M149.942 76.9005L39.5227 78.9039V77.6942L149.942 75.6907V76.9005Z" fill="#8FD700"/>
<path d="M149.942 78.1144L39.5227 80.1179V78.9039L149.942 76.9005V78.1144Z" fill="#8FD600"/>
<path d="M149.942 79.3242L39.5227 81.3276V80.1179L149.942 78.1144V79.3242Z" fill="#8FD500"/>
<path d="M149.942 80.5381L39.5227 82.5416V81.3276L149.942 79.3242V80.5381Z" fill="#8ED400"/>
<path d="M149.942 81.7478L39.5227 83.7513V82.5416L149.942 80.5381V81.7478Z" fill="#8ED300"/>
<path d="M149.942 82.9618L39.5227 84.9653V83.7513L149.942 81.7478V82.9618Z" fill="#8DD200"/>
<path d="M149.942 84.1716L39.5227 86.175V84.9653L149.942 82.9618V84.1716Z" fill="#8DD100"/>
<path d="M149.942 85.3855L39.5227 87.389V86.175L149.942 84.1715V85.3855Z" fill="#8DD000"/>
<path d="M149.942 86.5952L39.5227 88.5987V87.389L149.942 85.3855V86.5952Z" fill="#8CCF00"/>
<path d="M149.942 87.8092L39.5227 89.8085V88.5987L149.942 86.5952V87.8092Z" fill="#8CCE00"/>
<path d="M149.942 89.0189L39.5227 91.0224V89.8085L149.942 87.8092V89.0189Z" fill="#8CCC00"/>
<path d="M149.942 90.2329L39.5227 92.2322V91.0224L149.942 89.019V90.2329Z" fill="#8BCB00"/>
<path d="M149.942 91.4426L39.5227 93.4461V92.2322L149.942 90.2329V91.4426Z" fill="#8BCA00"/>
<path d="M149.942 92.6566L39.5227 94.6559V93.4461L149.942 91.4427V92.6566Z" fill="#8BC900"/>
<path d="M149.942 93.8663L39.5227 95.8698V94.6559L149.942 92.6566V93.8663Z" fill="#8AC800"/>
<path d="M149.942 95.0803L39.5227 97.0796V95.8698L149.942 93.8663V95.0803Z" fill="#8AC700"/>
<path d="M149.942 96.2901L39.5227 98.2935V97.0796L149.942 95.0803V96.2901Z" fill="#89C600"/>
<path d="M149.942 97.504L39.5227 99.5032V98.2935L149.942 96.29V97.504Z" fill="#89C500"/>
<path d="M149.942 98.7138L39.5227 100.717V99.5033L149.942 97.504V98.7138Z" fill="#89C400"/>
<path d="M149.942 99.9277L39.5227 101.927V100.717L149.942 98.7137V99.9277Z" fill="#88C300"/>
<path d="M149.942 101.137L39.5227 103.141V101.927L149.942 99.9277V101.137Z" fill="#88C200"/>
<path d="M149.942 102.347L39.5227 104.351V103.141L149.942 101.137V102.347Z" fill="#88C100"/>
<path d="M149.942 103.561L39.5227 105.565V104.351L149.942 102.347V103.561Z" fill="#87C000"/>
<path d="M149.942 104.771L39.5227 106.774V105.565L149.942 103.561V104.771Z" fill="#87BF00"/>
<path d="M149.942 105.985L39.5227 107.988V106.774L149.942 104.771V105.985Z" fill="#86BE00"/>
<path d="M149.942 107.195L39.5227 109.198V107.988L149.942 105.985V107.195Z" fill="#86BD00"/>
<path d="M149.942 108.409L39.5227 110.412V109.198L149.942 107.195V108.409Z" fill="#86BC00"/>
<path d="M149.942 109.618L39.5227 111.622V110.412L149.942 108.409V109.618Z" fill="#85BB00"/>
<path d="M149.942 110.832L39.5227 112.836V111.622L149.942 109.618V110.832Z" fill="#85BA00"/>
<path d="M149.942 112.042L39.5227 114.045V112.836L149.942 110.832V112.042Z" fill="#85B900"/>
<path d="M149.942 113.256L39.5227 115.259V114.045L149.942 112.042V113.256Z" fill="#84B800"/>
<path d="M149.942 114.466L39.5227 116.469V115.259L149.942 113.256V114.466Z" fill="#84B700"/>
<path d="M149.942 115.68L39.5227 117.683V116.469L149.942 114.466V115.68Z" fill="#84B600"/>
<path d="M149.942 116.889L39.5227 118.893V117.683L149.942 115.68V116.889Z" fill="#83B500"/>
<path d="M149.942 118.103L39.5227 120.107V118.893L149.942 116.889V118.103Z" fill="#83B400"/>
<path d="M149.942 119.313L39.5227 121.317V120.107L149.942 118.103V119.313Z" fill="#82B300"/>
<path d="M149.942 120.527L39.5227 122.526V121.317L149.942 119.313V120.527Z" fill="#82B200"/>
<path d="M149.942 121.737L39.5227 123.74V122.526L149.942 120.527V121.737Z" fill="#82B100"/>
<path d="M149.942 122.951L39.5227 124.95V123.74L149.942 121.737V122.951Z" fill="#81B000"/>
<path d="M149.942 124.16L39.5227 126.164V124.95L149.942 122.951V124.16Z" fill="#81AF00"/>
<path d="M149.942 125.374L39.5227 127.374V126.164L149.942 124.16V125.374Z" fill="#81AE00"/>
<path d="M149.942 126.584L39.5227 128.588V127.374L149.942 125.374V126.584Z" fill="#80AD00"/>
<path d="M149.942 127.798L39.5227 129.797V128.588L149.942 126.584V127.798Z" fill="#80AC00"/>
<path d="M149.942 129.008L39.5227 131.011V129.797L149.942 127.798V129.008Z" fill="#80AB00"/>
<path d="M149.942 130.222L39.5227 132.221V131.011L149.942 129.008V130.222Z" fill="#7FAA00"/>
<path d="M149.942 131.432L39.5227 133.435V132.221L149.942 130.222V131.432Z" fill="#7FA900"/>
<path d="M149.942 132.646L39.5227 134.645V133.435L149.942 131.432V132.646Z" fill="#7EA800"/>
<path d="M149.942 133.855L39.5227 135.859V134.645L149.942 132.646V133.855Z" fill="#7EA700"/>
<path d="M149.942 135.065L39.5227 137.068V135.859L149.942 133.855V135.065Z" fill="#7EA600"/>
<path d="M149.942 136.279L39.5227 138.282V137.068L149.942 135.065V136.279Z" fill="#7DA500"/>
<path d="M149.942 137.489L39.5227 139.492V138.282L149.942 136.279V137.489Z" fill="#7DA400"/>
<path d="M149.942 138.703L39.5227 140.706V139.492L149.942 137.489V138.703Z" fill="#7DA300"/>
<path d="M149.942 139.912L74.0321 141.292H39.5227V140.706L149.942 138.703V139.912Z" fill="#7CA200"/>
<path d="M149.942 141.126L140.844 141.292H74.0322L149.942 139.912V141.126Z" fill="#7CA100"/>
<path d="M140.844 141.292L149.942 141.126V141.292H140.844Z" fill="#7BA000"/>
</g>
</svg>
